<svg width="62" height="71" viewBox="0 0 62 71" fill="none" xmlns="http://www.w3.org/2000/svg">
<path opacity="0.1" d="M30.7163 70.8548C24.0681 70.8548 18.5278 69.9683 14.0956 68.1955C9.66342 66.4226 6.30761 63.8582 4.0282 60.5024C1.8121 57.1466 0.609074 53.1577 0.419122 48.5355H16.375C16.565 50.8782 17.2615 52.8411 18.4645 54.424C19.6675 56.0069 21.3138 57.1783 23.4032 57.9381C25.556 58.6979 28.057 59.0778 30.9063 59.0778C34.1988 59.0778 36.9214 58.6662 39.0742 57.8431C41.2903 57.02 42.9365 55.8803 44.0129 54.424C45.0893 52.9044 45.6275 51.1315 45.6275 49.1054C45.6275 47.5858 45.3109 46.2878 44.6778 45.2114C44.1079 44.0717 43.2531 43.1536 42.1134 42.4571C40.9737 41.6973 39.5807 41.1591 37.9345 40.8425C36.2882 40.4626 34.3887 40.2726 32.236 40.2726H22.6434V29.8253H31.7611C34.6737 29.8253 37.0481 29.4771 38.8842 28.7806C40.7204 28.0208 42.0501 26.976 42.8732 25.6464C43.7597 24.3167 44.2029 22.7971 44.2029 21.0876C44.2029 19.1247 43.6647 17.5418 42.5883 16.3388C41.5752 15.0724 40.0873 14.1227 38.1244 13.4895C36.1616 12.8563 33.8189 12.5398 31.0962 12.5398C28.4369 12.5398 26.0942 12.9197 24.0681 13.6795C22.0419 14.4393 20.4273 15.579 19.2243 17.0986C18.0846 18.6182 17.4198 20.5177 17.2298 22.7971H1.65381C1.84376 17.8584 3.20507 13.7744 5.73776 10.5453C8.27044 7.25277 11.7529 4.78341 16.1851 3.13716C20.6806 1.49092 25.8409 0.667798 31.6661 0.667798C36.1616 0.667798 40.1822 1.07936 43.728 1.90248C47.2738 2.7256 50.2813 3.92863 52.7507 5.51155C55.2834 7.03116 57.2145 8.93068 58.5442 11.2101C59.8739 13.4895 60.5387 16.1172 60.5387 19.0931C60.5387 21.6258 60.0005 23.9368 58.9241 26.0263C57.8477 28.1158 56.3281 29.8886 54.3653 31.3449C52.4024 32.7379 50.0281 33.7193 47.2421 34.2892V34.859C50.218 35.1756 52.7823 36.0304 54.9351 37.4234C57.0879 38.753 58.7658 40.5576 59.9688 42.837C61.2352 45.0531 61.8683 47.6491 61.8683 50.625C61.8683 54.6773 60.6653 58.223 58.2593 61.2622C55.8532 64.3015 52.3075 66.6759 47.622 68.3854C42.9999 70.0317 37.3646 70.8548 30.7163 70.8548Z" fill="#FF6600"/>
</svg>
