<svg width="277" height="86" viewBox="0 0 277 86" fill="none" xmlns="http://www.w3.org/2000/svg">
<rect width="277" height="86" rx="43" transform="matrix(-1 0 0 1 277 0)" fill="white"/>
<path d="M101.167 53.1145C99.2007 50.9739 98.2188 48.3477 98.2188 45.2337C98.2188 42.1219 99.2007 39.4871 101.167 37.3274C103.13 35.1697 105.627 34.0898 108.655 34.0898C111.437 34.0898 113.729 34.9653 115.531 36.7139V34.7118H122.781V55.713H115.616V53.336H115.531C113.729 55.3297 111.437 56.3265 108.655 56.3265C105.627 56.3265 103.13 55.2572 101.167 53.1145ZM107.326 41.6724C106.383 42.599 105.912 43.7854 105.912 45.2337C105.912 46.6778 106.359 47.8557 107.258 48.7694C108.161 49.6853 109.35 50.1411 110.828 50.1411C112.247 50.1411 113.414 49.6789 114.33 48.7524C115.243 47.828 115.701 46.6544 115.701 45.2337C115.701 43.7854 115.228 42.599 114.287 41.6724C113.343 40.7417 112.191 40.2752 110.828 40.2752C109.435 40.2752 108.268 40.7417 107.326 41.6724Z" fill="black"/>
<path d="M135.397 40.0281C134.034 40.0281 132.86 40.5351 131.878 41.5447C130.894 42.5564 130.404 43.7726 130.404 45.1911C130.404 46.6395 130.894 47.8706 131.878 48.8802C132.86 49.8855 134.034 50.3882 135.397 50.3882C136.055 50.3882 136.677 50.3094 137.263 50.1496C137.846 49.9856 138.277 49.8216 138.549 49.6555L138.924 49.4084L141.378 54.4436C141.184 54.5799 140.918 54.7503 140.577 54.9548C140.236 55.1593 139.457 55.4383 138.243 55.7897C137.033 56.1476 135.729 56.3265 134.332 56.3265C131.248 56.3265 128.538 55.2423 126.204 53.0719C123.874 50.9036 122.711 48.3008 122.711 45.2678C122.711 42.2135 123.874 39.5851 126.204 37.387C128.538 35.1889 131.248 34.0898 134.332 34.0898C135.729 34.0898 137.011 34.256 138.183 34.584C139.359 34.9141 140.189 35.24 140.679 35.5638L141.378 36.0579L138.924 41.0164C138.021 40.3583 136.845 40.0281 135.397 40.0281Z" fill="black"/>
<path d="M162.07 46.2135H146.836C146.836 47.6917 147.313 48.7843 148.267 49.4936C149.222 50.1986 150.257 50.5501 151.377 50.5501C152.553 50.5501 153.482 50.3946 154.163 50.0815C154.845 49.7705 155.622 49.1507 156.498 48.2242L161.737 50.8397C159.556 54.499 155.927 56.3265 150.849 56.3265C147.68 56.3265 144.962 55.2423 142.696 53.0719C140.434 50.9036 139.305 48.2902 139.305 45.2337C139.305 42.173 140.434 39.551 142.696 37.37C144.962 35.1846 147.68 34.0898 150.849 34.0898C154.176 34.0898 156.883 35.0526 158.968 36.978C161.058 38.9035 162.104 41.6554 162.104 45.2337C162.104 45.7236 162.091 46.0495 162.07 46.2135ZM147.041 42.2007H155.024C154.858 41.1101 154.427 40.2731 153.729 39.6873C153.034 39.0973 152.144 38.8013 151.053 38.8013C149.848 38.8013 148.892 39.1165 148.182 39.747C147.471 40.3732 147.092 41.1911 147.041 42.2007Z" fill="black"/>
<path d="M163.336 55.7131V34.7118H170.586V36.9184H170.671C172.55 35.0334 174.556 34.0898 176.686 34.0898C178.214 34.0898 179.645 34.4051 180.98 35.0355C182.32 35.666 183.332 36.6351 184.013 37.9408C186.143 35.3742 188.463 34.0898 190.974 34.0898C193.217 34.0898 195.142 34.7203 196.751 35.9812C198.363 37.2379 199.17 39.2017 199.17 41.8769V55.7131H191.92V43.8365C191.92 42.7183 191.613 41.7832 191 41.0335C190.386 40.2837 189.462 39.9089 188.231 39.9089C187.168 39.9089 186.356 40.2305 185.794 40.8716C185.236 41.5148 184.929 42.2837 184.874 43.1805V55.7131H177.632V43.8365C177.632 42.7183 177.321 41.7832 176.703 41.0335C176.09 40.2837 175.17 39.9089 173.943 39.9089C172.823 39.9089 171.984 40.2582 171.421 40.9568C170.863 41.6512 170.586 42.4733 170.586 43.4275V55.7131H163.336Z" fill="#787878"/>
<path d="M201.643 53.0975C199.677 50.9398 198.695 48.3051 198.695 45.1911C198.695 42.0793 199.677 39.453 201.643 37.3103C203.607 35.1633 206.103 34.0898 209.132 34.0898C211.914 34.0898 214.206 35.0867 216.008 37.0803H216.093V34.7118H223.258V66.3628H216.008V53.7109C214.206 55.4553 211.914 56.3265 209.132 56.3265C206.103 56.3265 203.607 55.2509 201.643 53.0975ZM207.735 41.6469C206.836 42.5628 206.389 43.7428 206.389 45.1911C206.389 46.6395 206.859 47.828 207.803 48.7524C208.744 49.6789 209.912 50.1411 211.305 50.1411C212.668 50.1411 213.82 49.6789 214.764 48.7524C215.705 47.828 216.178 46.6395 216.178 45.1911C216.178 43.7726 215.72 42.599 214.806 41.6725C213.89 40.7417 212.723 40.2752 211.305 40.2752C209.826 40.2752 208.638 40.7331 207.735 41.6469Z" fill="#787878"/>
<path d="M65.3471 52.0132C63.6562 55.1721 65.9449 58.9997 69.5319 58.9997H57.7522C54.1687 58.9997 51.8764 55.1757 53.5673 52.0132L54.2147 50.7998L68.2231 24.6367L69.3621 22.5072C71.1485 19.1643 75.9418 19.1643 77.7282 22.5072L79.4333 25.6944L74.1129 35.6382L65.9945 50.7998L65.3471 52.0132Z" fill="black"/>
<path d="M89.3494 59.0007H80.6897C77.1062 59.0007 74.8139 55.1767 76.5048 52.0142L78.5177 48.2539L85.016 36.1133L93.5271 52.0142C95.2251 55.1767 92.9328 59.0007 89.3494 59.0007Z" fill="black"/>
<path d="M85.0126 36.1089V36.1159L78.5107 48.2494C79.0732 47.1847 79.2359 45.9076 78.8503 44.6589C78.8291 44.5988 78.8114 44.5351 78.7902 44.475C78.7088 44.2521 78.6062 44.0293 78.493 43.8099L74.8565 37.018L74.1172 35.6348L79.4411 25.6875L80.1804 27.0706L84.2237 34.6196L85.0126 36.1089Z" fill="#7C7C7C"/>
<path d="M89.3494 59.0007H80.6897C77.1062 59.0007 74.8139 55.1767 76.5048 52.0142L78.5177 48.2539L85.016 36.1133L93.5271 52.0142C95.2251 55.1767 92.9328 59.0007 89.3494 59.0007Z" fill="black"/>
<path d="M89.3494 59.0007H80.6897C77.1062 59.0007 74.8139 55.1767 76.5048 52.0142L78.5177 48.2539L85.016 36.1133L93.5271 52.0142C95.2251 55.1767 92.9328 59.0007 89.3494 59.0007Z" fill="black"/>
<g opacity="0.1">
<mask id="mask0_1_2700" style="mask-type:luminance" maskUnits="userSpaceOnUse" x="74" y="25" width="7" height="13">
<path d="M80.1691 25.6953H74.1094V37.0258H80.1691V25.6953Z" fill="white"/>
</mask>
<g mask="url(#mask0_1_2700)">
<path d="M80.1691 27.0749L74.8452 37.0258L74.1094 35.6427L79.4297 25.6953L80.1691 27.0749Z" fill="black"/>
</g>
</g>
<g opacity="0.1">
<mask id="mask1_1_2700" style="mask-type:luminance" maskUnits="userSpaceOnUse" x="78" y="34" width="8" height="15">
<path d="M85.0175 34.625H78.5156V48.2513H85.0175V34.625Z" fill="white"/>
</mask>
<g mask="url(#mask1_1_2700)">
<path d="M85.0175 36.1068V36.1139L78.5156 48.2474C79.0781 47.1826 79.2408 45.9056 78.8552 44.6569L84.2251 34.6211L85.0175 36.1068Z" fill="black"/>
</g>
</g>
</svg>
