<svg width="14" height="47" viewBox="0 0 14 47" fill="none" xmlns="http://www.w3.org/2000/svg">
<path d="M9.23524 46.5088C9.75407 46.6981 10.3281 46.431 10.5174 45.9121L13.6021 37.4573C13.7914 36.9384 13.5242 36.3644 13.0054 36.1751C12.4865 35.9858 11.9125 36.253 11.7232 36.7718L8.98129 44.2872L1.46584 41.5453C0.94701 41.356 0.372963 41.6232 0.183672 42.142C-0.00561723 42.6608 0.26153 43.2349 0.780364 43.4242L9.23524 46.5088ZM10.4846 45.1475C9.68591 43.4312 8.99726 41.6901 8.40723 39.9383L6.51185 40.5767C7.12418 42.3947 7.83988 44.2047 8.67135 45.9913L10.4846 45.1475ZM5.90223 28.9925C5.38588 25.0809 5.25165 21.2733 5.36574 17.7383L3.36678 17.6737C3.24961 21.304 3.38712 25.2216 3.91943 29.2543L5.90223 28.9925ZM6.60655 6.54055C7.03165 4.36266 7.51382 2.52344 7.97332 1.11721L6.07224 0.496011C5.58326 1.99244 5.08175 3.91263 4.64359 6.1574L6.60655 6.54055Z" fill="#DCFFFA"/>
</svg>
