<svg width="29" height="38" viewBox="0 0 29 38" fill="none" xmlns="http://www.w3.org/2000/svg">
<path d="M23.0227 1.00109C23.1329 0.747907 23.4276 0.632027 23.6807 0.742261L27.8066 2.53867C28.0598 2.6489 28.1757 2.94351 28.0655 3.1967C27.9552 3.44989 27.6606 3.56577 27.4074 3.45553L23.74 1.85873L22.1432 5.52618C22.0329 5.77936 21.7383 5.89525 21.4851 5.78501C21.2319 5.67477 21.1161 5.38016 21.2263 5.12698L23.0227 1.00109ZM1.35854 35.3088C2.33055 35.7813 3.40625 36.1697 4.55163 36.4606L4.30541 37.4299C3.09994 37.1236 1.95961 36.7129 0.921319 36.2081L1.35854 35.3088ZM11.3416 36.9961C13.5898 36.8008 15.8377 36.2321 17.8961 35.231L18.3334 36.1303C16.1526 37.1909 13.7837 37.7877 11.4282 37.9923L11.3416 36.9961ZM23.174 31.0533C24.4792 29.4246 25.5196 27.4248 26.1698 25.0068L27.1355 25.2665C26.4509 27.8123 25.3495 29.9377 23.9543 31.6787L23.174 31.0533ZM26.913 18.211C26.8649 16.1338 26.5997 13.8553 26.0793 11.3625L27.0582 11.1582C27.5895 13.7033 27.8631 16.0428 27.9128 18.1878L26.913 18.211ZM24.2178 4.65584C23.8571 3.59598 23.4571 2.50548 23.0158 1.38372L23.9464 1.01767C24.3931 2.15326 24.7985 3.25838 25.1645 4.33364L24.2178 4.65584Z" fill="white"/>
</svg>
