<svg width="414" height="109" viewBox="0 0 414 109" fill="none" xmlns="http://www.w3.org/2000/svg">
<path d="M4.10066 107.938C4.34214 108.434 4.94056 108.641 5.43725 108.4L13.5313 104.465C14.028 104.223 14.2349 103.625 13.9934 103.128C13.7519 102.631 13.1535 102.424 12.6568 102.666L5.46209 106.164L1.96411 98.9691C1.72262 98.4724 1.12421 98.2655 0.627517 98.507C0.130825 98.7485 -0.0760612 99.3469 0.165424 99.8436L4.10066 107.938ZM5.94511 107.827C6.53067 106.133 7.12196 104.464 7.7189 102.819L5.83886 102.137C5.23839 103.792 4.64371 105.471 4.05489 107.174L5.94511 107.827ZM11.3678 93.2371C12.6101 90.1286 13.8746 87.1154 15.1604 84.1951L13.33 83.3891C12.0346 86.3312 10.7612 89.3657 9.51061 92.4948L11.3678 93.2371ZM19.5631 74.7247C21.0569 71.6826 22.5767 68.7541 24.1215 65.9361L22.3677 64.9747C20.8079 67.82 19.2744 70.7752 17.7678 73.8432L19.5631 74.7247ZM29.3077 57.0349C31.1 54.1436 32.9224 51.3869 34.7736 48.7601L33.1388 47.608C31.2641 50.2681 29.4201 53.0578 27.6079 55.9812L29.3077 57.0349ZM40.969 40.5773C43.1179 37.9406 45.3013 35.4616 47.5174 33.134L46.0689 31.7549C43.8162 34.121 41.5989 36.6386 39.4187 39.3138L40.969 40.5773ZM54.8649 26.0653C57.4449 23.8004 60.0643 21.7192 62.7206 19.8126L61.5544 18.1878C58.8439 20.1333 56.1734 22.2553 53.5454 24.5623L54.8649 26.0653ZM71.1085 14.429C74.0871 12.7332 77.1073 11.2331 80.1661 9.91719L79.3757 8.08C76.2489 9.42519 73.1622 10.9583 70.119 12.6909L71.1085 14.429ZM89.5913 6.46832C92.8047 5.48964 96.0564 4.69174 99.3432 4.06238L98.967 2.09806C95.6128 2.74035 92.2921 3.55508 89.0086 4.55509L89.5913 6.46832ZM109.321 2.66632C112.64 2.36545 115.99 2.21763 119.369 2.21116L119.365 0.211161C115.931 0.217746 112.521 0.368004 109.14 0.674486L109.321 2.66632ZM129.456 2.59392C132.794 2.84796 136.155 3.22475 139.537 3.71346L139.824 1.73402C136.4 1.23931 132.993 0.857365 129.607 0.59969L129.456 2.59392ZM149.459 5.44645C152.734 6.11327 156.025 6.87302 159.33 7.71607L159.824 5.77815C156.491 4.92763 153.167 4.16045 149.858 3.48665L149.459 5.44645ZM169.132 10.4414C172.331 11.4006 175.539 12.428 178.754 13.5148L179.394 11.6202C176.159 10.5265 172.929 9.49209 169.707 8.52567L169.132 10.4414ZM188.329 16.9128C191.487 18.0838 194.649 19.3036 197.813 20.5639L198.553 18.706C195.376 17.4403 192.199 16.2147 189.024 15.0376L188.329 16.9128ZM207.2 24.4138C210.317 25.7263 213.433 27.0702 216.547 28.4379L217.351 26.6068C214.23 25.2355 211.104 23.8875 207.976 22.5706L207.2 24.4138ZM225.824 32.5809C228.914 33.981 231.999 35.3968 235.077 36.8207L235.916 35.0055C232.835 33.58 229.746 32.1619 226.65 30.7592L225.824 32.5809ZM244.289 41.1105C247.377 42.5556 250.455 44.0006 253.522 45.4386L254.371 43.6277C251.305 42.1904 248.226 40.7446 245.137 39.299L244.289 41.1105ZM262.741 49.7478C265.837 51.1881 268.918 52.6124 271.982 54.0121L272.813 52.1929C269.754 50.7956 266.677 49.3734 263.584 47.9345L262.741 49.7478ZM281.3 58.2082C284.429 59.5944 287.538 60.9455 290.624 62.2519L291.403 60.4102C288.329 59.1087 285.231 57.7621 282.11 56.3796L281.3 58.2082ZM300.069 66.1322C303.289 67.4109 306.481 68.6288 309.641 69.7749L310.323 67.8947C307.184 66.7563 304.011 65.5456 300.807 64.2734L300.069 66.1322ZM319.281 73.069C322.579 74.1217 325.839 75.0796 329.055 75.9291L329.565 73.9954C326.386 73.1555 323.159 72.2072 319.889 71.1637L319.281 73.069ZM339.091 78.2408C342.535 78.9088 345.923 79.4273 349.25 79.7775L349.459 77.7885C346.196 77.445 342.866 76.9356 339.472 76.2774L339.091 78.2408ZM359.503 80.3018C363.003 80.2758 366.422 80.0236 369.755 79.5195L369.456 77.542C366.226 78.0305 362.901 78.2765 359.488 78.3019L359.503 80.3018ZM379.782 77.1272C383.04 76.038 386.194 74.6509 389.233 72.9388L388.251 71.1963C385.326 72.8442 382.289 74.1803 379.148 75.2304L379.782 77.1272ZM397.752 67.0114C400.283 64.8781 402.712 62.4626 405.032 59.7469L403.512 58.4476C401.259 61.0844 398.907 63.4223 396.463 65.4821L397.752 67.0114ZM411.098 51.5719C412.044 50.1088 412.969 48.5827 413.87 46.9919L412.13 46.0059C411.247 47.5638 410.343 49.0564 409.419 50.4854L411.098 51.5719Z" fill="#DCFFFA"/>
</svg>
