<svg width="100" height="67" viewBox="0 0 100 67" fill="none" xmlns="http://www.w3.org/2000/svg">
<path d="M7.95337 66.538C8.39699 66.867 9.0233 66.7741 9.35226 66.3304L14.713 59.1011C15.0419 58.6575 14.949 58.0312 14.5054 57.7022C14.0617 57.3733 13.4354 57.4662 13.1065 57.9099L8.34138 64.3359L1.91534 59.5708C1.47172 59.2419 0.845415 59.3348 0.516455 59.7784C0.187494 60.2221 0.280449 60.8484 0.724074 61.1773L7.95337 66.538ZM9.53817 65.588C9.2979 63.9691 9.10945 62.4113 8.97048 60.9122L6.97902 61.0968C7.12156 62.6345 7.31452 64.2287 7.55984 65.8816L9.53817 65.588ZM8.75335 51.7323C8.9423 48.3705 9.45194 45.4009 10.2343 42.7748L8.3175 42.2038C7.48517 44.9978 6.95303 48.1234 6.7565 51.6201L8.75335 51.7323ZM14.1617 34.6963C15.9691 32.2256 18.1705 30.2204 20.6856 28.5846L19.5952 26.908C16.897 28.6628 14.5115 30.8307 12.5475 33.5155L14.1617 34.6963ZM28.9106 24.7517C31.7226 23.8301 34.7291 23.1468 37.8634 22.629L37.5375 20.6558C34.3298 21.1856 31.2199 21.8902 28.2877 22.8512L28.9106 24.7517ZM47.0847 21.5387C50.1671 21.2881 53.291 21.1209 56.4037 20.9746L56.3097 18.9768C53.1908 19.1235 50.0397 19.2919 46.9226 19.5453L47.0847 21.5387ZM65.7675 20.5283C69.0082 20.3475 72.1688 20.1168 75.1676 19.7571L74.9294 17.7713C71.9912 18.1237 68.8782 18.3516 65.656 18.5314L65.7675 20.5283ZM84.5276 17.9529C87.8631 16.9727 90.8292 15.6044 93.211 13.6424L91.9393 12.0987C89.831 13.8355 87.1362 15.1018 83.9638 16.034L84.5276 17.9529ZM98.477 5.3913C98.8762 3.90267 99.1122 2.27721 99.176 0.503353L97.1773 0.431543C97.1183 2.07219 96.9011 3.54644 96.5452 4.87327L98.477 5.3913Z" fill="#DCFFFA"/>
</svg>
