<svg width="96" height="57" viewBox="0 0 96 57" fill="none" xmlns="http://www.w3.org/2000/svg">
<path d="M48.3872 21.9271L48.3418 20.9281L48.3872 21.9271ZM87.1819 56.2334C87.5854 56.6105 88.2182 56.5892 88.5953 56.1858L94.7415 49.6112C95.1187 49.2078 95.0974 48.575 94.6939 48.1978C94.2905 47.8207 93.6577 47.842 93.2805 48.2454L87.8172 54.0895L81.9732 48.6262C81.5698 48.249 80.937 48.2703 80.5598 48.6738C80.1826 49.0772 80.204 49.71 80.6074 50.0872L87.1819 56.2334ZM1.22844 3.28464C2.18284 2.84855 3.37906 2.79594 4.87662 3.14369L5.32901 1.19552C3.58187 0.789816 1.89476 0.781282 0.397244 1.46554L1.22844 3.28464ZM12.5288 6.66686C14.8253 8.03435 17.2866 9.65237 19.893 11.3453L20.9824 9.66798C18.3942 7.98696 15.891 6.34119 13.552 4.94844L12.5288 6.66686ZM27.3621 16.0166C29.9336 17.5234 32.5811 18.9321 35.261 20.08L36.0484 18.2415C33.4705 17.1373 30.9009 15.7721 28.3732 14.291L27.3621 16.0166ZM43.8721 22.6654C45.3927 22.8977 46.9157 22.9949 48.4325 22.926L48.3418 20.9281C46.971 20.9904 45.5802 20.9031 44.1742 20.6883L43.8721 22.6654ZM48.4325 22.926C49.9507 22.8571 51.5139 22.8893 53.1016 23.023L53.2695 21.03C51.5995 20.8894 49.9499 20.8551 48.3418 20.9281L48.4325 22.926ZM62.2696 24.8854C65.2102 25.8387 68.0912 27.1316 70.7857 28.7605L71.8204 27.0489C68.9878 25.3366 65.9657 23.9811 62.8863 22.9829L62.2696 24.8854ZM78.0879 34.5509C80.2147 36.7573 82.0515 39.2717 83.4882 42.0921L85.2703 41.1843C83.7382 38.1766 81.7828 35.5022 79.5279 33.1629L78.0879 34.5509ZM86.3951 50.8924C86.6511 52.3796 86.8112 53.9276 86.8654 55.5365L88.8643 55.4692C88.8071 53.7707 88.6379 52.1318 88.3661 50.553L86.3951 50.8924Z" fill="#DCFFFA"/>
</svg>
