<svg width="311" height="72" viewBox="0 0 311 72" fill="none" xmlns="http://www.w3.org/2000/svg">
<path d="M0.945738 29.8952C0.39415 29.9232 -0.0302417 30.3931 -0.00222353 30.9447L0.454686 39.9331C0.482734 40.4846 0.952612 40.909 1.50417 40.881C2.05575 40.853 2.48015 40.3831 2.45213 39.8315L2.04598 31.8418L10.0357 31.4357C10.5872 31.4077 11.0116 30.9378 10.9836 30.3862C10.9556 29.8346 10.4857 29.4102 9.93412 29.4383L0.945738 29.8952ZM309.442 0.646187C308.086 1.46081 306.701 2.28831 305.287 3.12719L306.308 4.84712C307.725 4.00633 309.113 3.17701 310.472 2.36066L309.442 0.646187ZM296.822 8.08495C294.066 9.67719 291.222 11.2975 288.297 12.9371L289.275 14.6816C292.208 13.0376 295.059 11.413 297.822 9.81678L296.822 8.08495ZM279.74 17.6578C276.926 19.1845 274.049 20.7202 271.113 22.258L272.041 24.0298C274.986 22.4871 277.872 20.9468 280.694 19.4157L279.74 17.6578ZM262.413 26.7286C259.537 28.178 256.612 29.6235 253.642 31.0593L254.512 32.86C257.493 31.4192 260.428 29.9688 263.313 28.5146L262.413 26.7286ZM244.797 35.2399C241.862 36.5957 238.888 37.9373 235.879 39.2597L236.684 41.0907C239.705 39.7631 242.69 38.4163 245.636 37.0556L244.797 35.2399ZM226.889 43.1063C223.898 44.3507 220.877 45.5722 217.829 46.7663L218.558 48.6285C221.62 47.4292 224.654 46.2024 227.657 44.9528L226.889 43.1063ZM208.691 50.2294C205.642 51.3458 202.569 52.4311 199.475 53.4808L200.118 55.3747C203.227 54.3197 206.315 53.2292 209.378 52.1075L208.691 50.2294ZM190.182 56.504C187.076 57.4704 183.952 58.3975 180.814 59.281L181.356 61.2062C184.512 60.3176 187.653 59.3853 190.776 58.4137L190.182 56.504ZM171.373 61.792C168.214 62.5824 165.043 63.3251 161.862 64.0157L162.287 65.9701C165.488 65.2749 168.68 64.5275 171.858 63.7322L171.373 61.792ZM152.288 65.9286C149.083 66.5123 145.872 67.0394 142.657 67.5055L142.944 69.4848C146.184 69.0151 149.419 68.4841 152.647 67.8962L152.288 65.9286ZM132.976 68.7195C129.736 69.0612 126.495 69.3368 123.256 69.5419L123.383 71.5379C126.651 71.3309 129.919 71.053 133.186 70.7085L132.976 68.7195ZM113.512 69.942C110.256 70.0017 107.006 69.9854 103.763 69.8887L103.703 71.8878C106.979 71.9855 110.262 72.0019 113.548 71.9417L113.512 69.942ZM94.0335 69.351C90.7943 69.0875 87.5657 68.7383 84.3506 68.2991L84.0798 70.2806C87.332 70.725 90.5969 71.078 93.8713 71.3444L94.0335 69.351ZM74.7461 66.7059C71.5656 66.0828 68.4013 65.3653 65.2561 64.5489L64.7536 66.4848C67.9387 67.3115 71.1424 68.0379 74.3616 68.6686L74.7461 66.7059ZM55.9194 61.8115C52.8496 60.8051 49.8011 59.6976 46.7767 58.4847L46.0322 60.341C49.0973 61.5702 52.1863 62.6924 55.2964 63.712L55.9194 61.8115ZM37.8681 54.5681C34.9629 53.1751 32.083 51.6771 29.2311 50.0703L28.2493 51.8127C31.1398 53.4413 34.0587 54.9596 37.0034 56.3715L37.8681 54.5681ZM20.9188 45.0213C18.2371 43.2703 15.5833 41.4152 12.9597 39.4522L11.7616 41.0536C14.4192 43.042 17.1079 44.9216 19.8254 46.696L20.9188 45.0213ZM5.36418 33.3913C4.12407 32.3377 2.8915 31.258 1.66678 30.1518L0.326212 31.636C1.56587 32.7557 2.81362 33.8488 4.06925 34.9155L5.36418 33.3913Z" fill="white"/>
</svg>
