<svg width="44" height="64" viewBox="0 0 44 64" fill="none" xmlns="http://www.w3.org/2000/svg">
<path d="M7.94333 63.2112C7.82657 63.4614 7.52906 63.5696 7.27881 63.4529L3.20084 61.5502C2.95059 61.4335 2.84238 61.1359 2.95913 60.8857C3.07589 60.6354 3.3734 60.5272 3.62365 60.644L7.24852 62.3352L8.93977 58.7104C9.05652 58.4601 9.35404 58.3519 9.60429 58.4687C9.85453 58.5854 9.96274 58.8829 9.84599 59.1332L7.94333 63.2112ZM43.1569 1.99949C41.994 1.93873 40.7404 1.90215 39.419 1.90319L39.4182 0.903191C40.7585 0.902139 42.0298 0.939234 43.209 1.00085L43.1569 1.99949ZM31.9523 2.32965C29.5439 2.6122 27.0669 3.05465 24.6178 3.71301L24.3582 2.7473C26.8613 2.07441 29.387 1.62375 31.8358 1.33646L31.9523 2.32965ZM17.6472 6.29489C15.4405 7.3783 13.3482 8.70868 11.4531 10.3346L10.802 9.57562C12.7687 7.88824 14.9337 6.5131 17.2065 5.39724L17.6472 6.29489ZM6.60614 15.889C5.34936 17.844 4.29997 20.0646 3.51571 22.5861L2.56083 22.2891C3.3711 19.684 4.45816 17.381 5.76496 15.3482L6.60614 15.889ZM2.10988 29.8637C1.90113 32.1555 1.86807 34.6329 2.03547 37.3103L1.03742 37.3727C0.867111 34.6488 0.900216 32.12 1.114 29.773L2.10988 29.8637ZM2.93998 44.7399C3.34775 47.0582 3.88493 49.5001 4.5624 52.0717L3.59539 52.3264C2.91139 49.73 2.36806 47.261 1.9551 44.9131L2.93998 44.7399ZM6.70887 59.2405C7.09955 60.4129 7.51636 61.6089 7.9601 62.8289L7.02034 63.1707C6.5736 61.9424 6.15379 60.7379 5.76015 59.5566L6.70887 59.2405Z" fill="white"/>
</svg>
