<svg width="309" height="82" viewBox="0 0 309 82" fill="none" xmlns="http://www.w3.org/2000/svg">
<path d="M305.264 81.5334C305.8 81.6639 306.341 81.3347 306.472 80.7981L308.599 72.0531C308.729 71.5164 308.4 70.9756 307.864 70.8451C307.327 70.7145 306.786 71.0437 306.655 71.5804L304.765 79.3537L296.991 77.4629C296.455 77.3324 295.914 77.6616 295.783 78.1982C295.653 78.7349 295.982 79.2757 296.519 79.4062L305.264 81.5334ZM1.24887 21.5285C2.78113 21.1348 4.345 20.737 5.93915 20.3364L5.4517 18.3967C3.85393 18.7982 2.28663 19.1969 0.751126 19.5914L1.24887 21.5285ZM15.4671 18.0006C18.5633 17.2612 21.7509 16.5197 25.0218 15.7829L24.5824 13.8318C21.3025 14.5705 18.1066 15.314 15.0026 16.0553L15.4671 18.0006ZM34.5705 13.7006C37.7028 13.0403 40.8987 12.3896 44.152 11.7537L43.7683 9.79086C40.5049 10.4287 37.2995 11.0814 34.158 11.7436L34.5705 13.7006ZM53.7655 9.95166C56.9356 9.38327 60.1515 8.83265 63.4082 8.30426L63.0879 6.33007C59.8199 6.86031 56.593 7.41279 53.4125 7.98305L53.7655 9.95166ZM73.0779 6.82149C76.278 6.35979 79.511 5.9226 82.7723 5.51388L82.5236 3.5294C79.2495 3.93973 76.0042 4.37858 72.7923 4.84199L73.0779 6.82149ZM92.4864 4.39288C95.7078 4.05366 98.9518 3.74503 102.214 3.47061L102.047 1.47765C98.7697 1.75329 95.5118 2.06325 92.2769 2.40387L92.4864 4.39288ZM111.96 2.75924C115.201 2.55945 118.456 2.39623 121.721 2.27304L121.645 0.274458C118.364 0.398278 115.094 0.562294 111.837 0.763024L111.96 2.75924ZM131.49 2.02753C134.743 1.9877 138.001 1.99058 141.261 2.03953L141.291 0.0397511C138.012 -0.00947928 134.736 -0.012369 131.466 0.02768L131.49 2.02753ZM151.026 2.32717C154.28 2.47113 157.531 2.6643 160.776 2.90999L160.927 0.915695C157.66 0.668372 154.388 0.473978 151.115 0.329125L151.026 2.32717ZM170.498 3.80889C173.736 4.16403 176.964 4.57533 180.179 5.04611L180.469 3.06723C177.229 2.59282 173.977 2.17849 170.716 1.82081L170.498 3.80889ZM189.803 6.64512C193.006 7.24228 196.191 7.90306 199.353 8.63085L199.802 6.68178C196.611 5.94753 193.399 5.2811 190.169 4.679L189.803 6.64512ZM208.807 11.0282C211.944 11.9 215.055 12.8433 218.135 13.8613L218.763 11.9624C215.651 10.9339 212.509 9.98139 209.343 9.10125L208.807 11.0282ZM227.307 17.1533C230.336 18.3303 233.331 19.5863 236.287 20.9248L237.112 19.1028C234.122 17.7489 231.093 16.4788 228.031 15.2891L227.307 17.1533ZM245.037 25.1925C247.908 26.6974 250.736 28.2881 253.517 29.9681L254.551 28.2561C251.734 26.5548 248.871 24.9444 245.966 23.4212L245.037 25.1925ZM261.684 35.2561C264.339 37.0967 266.945 39.0281 269.497 41.0537L270.741 39.4871C268.154 37.4343 265.513 35.4772 262.824 33.6125L261.684 35.2561ZM276.918 47.3497C279.305 49.5139 281.637 51.7714 283.912 54.1253L285.35 52.7355C283.045 50.3497 280.68 48.0617 278.261 45.8681L276.918 47.3497ZM290.438 61.3364C292.508 63.7799 294.522 66.3152 296.477 68.9453L298.082 67.7524C296.102 65.0882 294.062 62.5195 291.964 60.0435L290.438 61.3364ZM302.027 76.9218C302.915 78.2854 303.788 79.672 304.646 81.0817L306.354 80.0418C305.486 78.6149 304.602 77.2112 303.703 75.8305L302.027 76.9218Z" fill="white"/>
</svg>
