<svg width="607" height="94" viewBox="0 0 607 94" fill="none" xmlns="http://www.w3.org/2000/svg">
<path d="M302.5 38.505L301.966 37.6593L302.5 38.505ZM603.78 93.9758C604.318 94.0975 604.854 93.7594 604.975 93.2206L606.958 84.4417C607.079 83.9029 606.741 83.3676 606.203 83.246C605.664 83.1243 605.129 83.4624 605.007 84.0011L603.245 91.8047L595.441 90.0426C594.903 89.9209 594.367 90.259 594.246 90.7978C594.124 91.3365 594.462 91.8718 595.001 91.9935L603.78 93.9758ZM1.81098 79.0901C2.72152 77.828 3.74173 76.6485 4.86785 75.5465L3.46904 74.117C2.26419 75.296 1.16874 76.5619 0.189015 77.92L1.81098 79.0901ZM12.4543 70.0463C15.0895 68.6158 18.0232 67.3914 21.2346 66.3502L20.6178 64.4477C17.3103 65.52 14.2606 66.7901 11.5001 68.2885L12.4543 70.0463ZM30.495 63.9811C33.5129 63.3825 36.6981 62.8938 40.0372 62.501L39.8036 60.5147C36.4205 60.9127 33.1828 61.4091 30.1059 62.0194L30.495 63.9811ZM49.6842 61.6465C52.7981 61.4505 56.0149 61.3163 59.3258 61.2347L59.2765 59.2353C55.9438 59.3175 52.7012 59.4526 49.5586 59.6504L49.6842 61.6465ZM69.0009 61.1363C72.1635 61.1451 75.3957 61.19 78.6909 61.2639L78.7357 59.2644C75.4295 59.1902 72.1841 59.1451 69.0065 59.1363L69.0009 61.1363ZM88.3876 61.5522C91.5742 61.6675 94.8095 61.8021 98.088 61.9504L98.1784 59.9524C94.8952 59.8039 91.6538 59.669 88.4599 59.5535L88.3876 61.5522ZM107.783 62.417C110.979 62.5782 114.208 62.7466 117.466 62.9172L117.571 60.92C114.312 60.7493 111.082 60.5808 107.884 60.4195L107.783 62.417ZM127.158 63.4224C130.37 63.5876 133.605 63.7502 136.858 63.9058L136.953 61.9081C133.703 61.7527 130.471 61.5901 127.26 61.425L127.158 63.4224ZM146.566 64.3424C149.793 64.477 153.033 64.6004 156.282 64.7083L156.348 62.7094C153.106 62.6018 149.872 62.4786 146.65 62.3441L146.566 64.3424ZM166.002 64.9798C169.239 65.0519 172.481 65.1044 175.723 65.1332L175.741 63.1332C172.508 63.1046 169.275 63.0522 166.046 62.9803L166.002 64.9798ZM185.449 65.1437C188.697 65.1206 191.942 65.0692 195.179 64.9854L195.127 62.9861C191.904 63.0695 188.671 63.1207 185.435 63.1438L185.449 65.1437ZM204.907 64.6302C208.16 64.4751 211.4 64.2824 214.625 64.0477L214.479 62.053C211.273 62.2864 208.049 62.4781 204.812 62.6324L204.907 64.6302ZM224.323 63.205C227.569 62.875 230.794 62.4967 233.992 62.0654L233.724 60.0834C230.549 60.5115 227.347 60.8873 224.121 61.2152L224.323 63.205ZM243.619 60.5881C246.846 60.0298 250.041 59.4106 253.198 58.7253L252.774 56.7708C249.646 57.4498 246.479 58.0637 243.278 58.6174L243.619 60.5881ZM262.686 56.4301C265.853 55.5811 268.975 54.6564 272.047 53.6505L271.425 51.7498C268.389 52.7438 265.302 53.6582 262.168 54.4983L262.686 56.4301ZM281.235 50.3323C284.282 49.123 287.27 47.8217 290.193 46.4224L289.329 44.6185C286.45 45.9971 283.504 47.2801 280.498 48.4734L281.235 50.3323ZM298.849 41.8736C300.262 41.0597 301.658 40.2191 303.034 39.3507L301.966 37.6593C300.613 38.513 299.241 39.3397 297.851 40.1403L298.849 41.8736ZM303.034 39.3507C304.425 38.4731 305.832 37.6082 307.257 36.7564L306.23 35.0399C304.792 35.8998 303.371 36.7731 301.966 37.6593L303.034 39.3507ZM315.916 31.8478C318.818 30.2896 321.778 28.784 324.79 27.3334L323.923 25.5314C320.884 26.9945 317.898 28.5135 314.97 30.0858L315.916 31.8478ZM333.852 23.2056C336.884 21.9014 339.961 20.6517 343.08 19.459L342.365 17.5909C339.221 18.7934 336.118 20.0533 333.062 21.3685L333.852 23.2056ZM352.452 16.0898C355.584 15.0342 358.752 14.0355 361.952 13.0959L361.388 11.1769C358.163 12.1239 354.97 13.1305 351.814 14.1945L352.452 16.0898ZM371.562 10.477C374.771 9.66941 378.008 8.92122 381.267 8.23454L380.855 6.27749C377.57 6.96954 374.308 7.72357 371.074 8.53748L371.562 10.477ZM391.052 6.37129C394.317 5.81518 397.602 5.32125 400.902 4.89152L400.644 2.90826C397.318 3.34139 394.007 3.83921 390.716 4.39968L391.052 6.37129ZM410.802 3.80073C414.103 3.50315 417.416 3.27079 420.737 3.1056L420.638 1.10807C417.29 1.2746 413.95 1.50885 410.622 1.80881L410.802 3.80073ZM430.691 2.81379C434.007 2.78469 437.327 2.82403 440.648 2.93375L440.714 0.934843C437.365 0.824193 434.017 0.784526 430.674 0.813868L430.691 2.81379ZM450.589 3.47454C453.896 3.72577 457.2 4.0488 460.497 4.44552L460.736 2.45984C457.409 2.05957 454.076 1.73371 450.741 1.48028L450.589 3.47454ZM470.35 5.85609C473.62 6.4001 476.88 7.01921 480.127 7.71531L480.546 5.75974C477.269 5.05707 473.978 4.4322 470.678 3.8832L470.35 5.85609ZM489.805 10.0314C493.008 10.8794 496.193 11.8055 499.359 12.8116L499.965 10.9055C496.768 9.88939 493.55 8.95421 490.317 8.09807L489.805 10.0314ZM508.763 16.061C511.862 17.2198 514.937 18.4594 517.987 19.7814L518.782 17.9464C515.701 16.6106 512.594 15.3583 509.463 14.1877L508.763 16.061ZM527.004 23.9732C529.961 25.4436 532.89 26.9963 535.786 28.6331L536.77 26.8919C533.843 25.2375 530.883 23.6683 527.894 22.1823L527.004 23.9732ZM544.307 33.7541C547.086 35.5277 549.831 37.3843 552.539 39.3255L553.704 37.7C550.967 35.7377 548.192 33.861 545.383 32.0681L544.307 33.7541ZM560.459 45.3331C563.027 47.3926 565.557 49.5342 568.045 51.7597L569.379 50.2688C566.863 48.0195 564.306 45.8546 561.71 43.7729L560.459 45.3331ZM575.281 58.5853C577.613 60.9056 579.904 63.3062 582.152 65.7885L583.634 64.4463C581.364 61.9381 579.049 59.5123 576.691 57.1674L575.281 58.5853ZM588.643 73.3396C590.714 75.8776 592.743 78.4923 594.727 81.185L596.337 79.9987C594.334 77.2795 592.285 74.6387 590.192 72.075L588.643 73.3396ZM600.425 89.3234C601.346 90.7083 602.256 92.1119 603.154 93.5344L604.846 92.4664C603.939 91.0306 603.02 89.6138 602.09 88.2158L600.425 89.3234Z" fill="#DCFFFA"/>
</svg>
