<svg width="49" height="103" viewBox="0 0 49 103" fill="none" xmlns="http://www.w3.org/2000/svg">
<path d="M7.29289 102.707C7.68342 103.098 8.31658 103.098 8.70711 102.707L15.0711 96.3431C15.4616 95.9526 15.4616 95.3195 15.0711 94.9289C14.6805 94.5384 14.0474 94.5384 13.6569 94.9289L8 100.586L2.34315 94.9289C1.95262 94.5384 1.31946 94.5384 0.928932 94.9289C0.538408 95.3195 0.538408 95.9526 0.928932 96.3431L7.29289 102.707ZM9 102C9 100.466 9.02939 98.9384 9.08672 97.4183L7.08814 97.3429C7.02988 98.8877 7 100.44 7 102H9ZM9.76677 88.2772C10.1057 85.213 10.5505 82.1861 11.0887 79.203L9.12045 78.8479C8.57455 81.8741 8.12298 84.9461 7.77889 88.0574L9.76677 88.2772ZM13.0091 70.2332C13.7521 67.2317 14.5817 64.2847 15.4836 61.3993L13.5747 60.8026C12.6613 63.7247 11.8207 66.7105 11.0676 69.7526L13.0091 70.2332ZM18.4745 52.715C19.5715 49.7994 20.7329 46.9616 21.9416 44.2102L20.1105 43.4058C18.8879 46.1888 17.7128 49.06 16.6026 52.0107L18.4745 52.715ZM25.8549 35.8993C27.2722 33.0812 28.7248 30.3787 30.1898 27.8033L28.4513 26.8145C26.9701 29.4185 25.5013 32.1511 24.0682 35.0008L25.8549 35.8993ZM34.9395 19.9352C36.6905 17.1999 38.4232 14.6647 40.0983 12.3491L38.4778 11.1769C36.7805 13.5233 35.0265 16.0898 33.2551 18.8569L34.9395 19.9352ZM45.7244 5.09801C46.7866 3.83083 47.7941 2.6896 48.7322 1.6811L47.2678 0.318896C46.3039 1.35506 45.2737 2.52234 44.1917 3.81318L45.7244 5.09801Z" fill="#DCFFFA"/>
</svg>
