<svg width="162" height="128" viewBox="0 0 162 128" fill="none" xmlns="http://www.w3.org/2000/svg">
<path d="M156.463 0.449102C156.159 0.168027 155.684 0.186816 155.403 0.491068L150.823 5.44915C150.542 5.7534 150.56 6.2279 150.865 6.50898C151.169 6.79005 151.643 6.77126 151.925 6.46701L155.996 2.05983L160.403 6.13129C160.707 6.41236 161.182 6.39357 161.463 6.08932C161.744 5.78507 161.725 5.31057 161.421 5.02949L156.463 0.449102ZM0.41444 122.531C0.15562 122.855 0.207968 123.327 0.531364 123.586L5.8014 127.803C6.1248 128.062 6.59678 128.01 6.8556 127.686C7.11442 127.363 7.06207 126.891 6.73867 126.632L2.0542 122.883L5.80329 118.199C6.06211 117.875 6.00976 117.403 5.68636 117.144C5.36297 116.886 4.89099 116.938 4.63217 117.261L0.41444 122.531ZM1.08268 123.745C2.49226 123.589 3.88988 123.426 5.2756 123.255L5.09225 121.766C3.71257 121.936 2.32095 122.099 0.917323 122.255L1.08268 123.745ZM13.4795 122.142C16.2777 121.727 19.0248 121.282 21.7216 120.808L21.462 119.331C18.7785 119.802 16.0446 120.245 13.2593 120.658L13.4795 122.142ZM29.9201 119.249C32.6846 118.682 35.3929 118.084 38.0461 117.456L37.7007 115.996C35.0624 116.621 32.3688 117.215 29.6188 117.779L29.9201 119.249ZM46.0994 115.415C48.8202 114.679 51.4788 113.91 54.0765 113.11L53.6352 111.677C51.0541 112.471 48.4119 113.235 45.7075 113.968L46.0994 115.415ZM62.0098 110.51C64.6876 109.576 67.2955 108.609 69.8351 107.611L69.2862 106.215C66.7652 107.206 64.1757 108.166 61.5161 109.093L62.0098 110.51ZM77.5317 104.399C80.1251 103.251 82.6404 102.07 85.0798 100.857L84.412 99.5139C81.993 100.717 79.4979 101.889 76.9248 103.027L77.5317 104.399ZM92.4548 96.9705C94.932 95.5876 97.3221 94.1715 99.6276 92.7258L98.8307 91.455C96.547 92.887 94.1789 94.2901 91.7237 95.6608L92.4548 96.9705ZM106.565 88.1128C108.892 86.472 111.121 84.8006 113.256 83.1033L112.322 81.9292C110.21 83.6084 108.004 85.2626 105.7 86.8869L106.565 88.1128ZM119.642 77.7044C121.758 75.8009 123.766 73.8727 125.67 71.9259L124.598 70.877C122.716 72.8009 120.731 74.707 118.639 76.5892L119.642 77.7044ZM131.296 65.7793C133.153 63.6072 134.891 61.4206 136.514 59.2276L135.309 58.3351C133.706 60.4999 131.99 62.6591 130.156 64.8045L131.296 65.7793ZM141.236 52.3418C142.767 49.9238 144.166 47.5086 145.443 45.1071L144.118 44.4032C142.859 46.7714 141.479 49.1538 139.968 51.5395L141.236 52.3418ZM149.066 37.5926C150.213 34.949 151.216 32.337 152.085 29.7719L150.664 29.2909C149.809 31.8168 148.821 34.39 147.69 36.9953L149.066 37.5926ZM154.421 21.7302C155.108 18.8958 155.631 16.1461 156.005 13.5046L154.52 13.2942C154.153 15.8869 153.639 18.5889 152.963 21.3766L154.421 21.7302ZM156.725 5.15524C156.765 3.70893 156.757 2.31214 156.703 0.970326L155.205 1.02967C155.256 2.33669 155.265 3.69983 155.226 5.11377L156.725 5.15524Z" fill="white"/>
</svg>
