<svg width="46" height="46" viewBox="0 0 46 46" fill="none" xmlns="http://www.w3.org/2000/svg">
<circle cx="23" cy="23" r="23" fill="#FB8817"/>
<path d="M13.4402 18.4589C13.7222 18.1651 14.1046 18 14.5033 18C14.902 18 15.2843 18.1651 15.5663 18.4589L23.0091 26.2169L30.4518 18.4589C30.7354 18.1734 31.1152 18.0154 31.5095 18.019C31.9037 18.0226 32.2808 18.1874 32.5596 18.478C32.8384 18.7686 32.9965 19.1617 32.9999 19.5726C33.0034 19.9835 32.8518 20.3794 32.5779 20.675L24.0721 29.5411C23.7902 29.8349 23.4078 30 23.0091 30C22.6104 30 22.228 29.8349 21.946 29.5411L13.4402 20.675C13.1584 20.3811 13 19.9825 13 19.5669C13 19.1514 13.1584 18.7528 13.4402 18.4589Z" fill="white"/>
</svg>
