<svg width="63" height="71" viewBox="0 0 63 71" fill="none" xmlns="http://www.w3.org/2000/svg">
<path opacity="0.1" d="M31.2415 70.8548C26.1128 70.8548 21.6173 70.4116 17.7549 69.5251C13.8926 68.6387 10.6634 67.3407 8.06742 65.6311C5.53473 63.9216 3.60356 61.8638 2.2739 59.4577C1.00756 57.0517 0.37439 54.329 0.37439 51.2898C0.37439 48.2506 1.03922 45.5596 2.36888 43.2169C3.69854 40.8741 5.50307 38.9746 7.78249 37.5183C10.1252 36.062 12.7845 35.2073 15.7604 34.954V34.3841C13.0378 33.8776 10.6318 32.9595 8.54229 31.6298C6.45283 30.3002 4.80659 28.5906 3.60356 26.5012C2.46385 24.4117 1.894 21.974 1.894 19.188C1.894 14.7558 3.192 11.2101 5.788 8.55077C8.384 5.82814 11.8981 3.83365 16.3303 2.56731C20.8258 1.30097 25.7962 0.667798 31.2415 0.667798C36.8134 0.667798 41.8154 1.30097 46.2476 2.56731C50.6798 3.83365 54.1939 5.82814 56.7899 8.55077C59.4492 11.2101 60.7789 14.7558 60.7789 19.188C60.7789 21.974 60.1774 24.4117 58.9743 26.5012C57.8346 28.5906 56.2201 30.3002 54.1306 31.6298C52.1044 32.9595 49.6984 33.8776 46.9124 34.3841V34.954C49.8883 35.2073 52.516 36.062 54.7954 37.5183C57.1382 38.9746 58.9743 40.8741 60.304 43.2169C61.6337 45.5596 62.2985 48.2506 62.2985 51.2898C62.2985 55.2788 61.1588 58.7612 58.8794 61.7371C56.6 64.6497 53.1492 66.8975 48.527 68.4804C43.9682 70.0633 38.2063 70.8548 31.2415 70.8548ZM31.2415 58.8879C34.4073 58.8879 37.0666 58.5396 39.2194 57.8431C41.4355 57.1466 43.0818 56.1019 44.1582 54.7089C45.2979 53.3159 45.8677 51.5747 45.8677 49.4853C45.8677 47.4591 45.3295 45.7812 44.2531 44.4516C43.1767 43.0586 41.5622 42.0139 39.4094 41.3174C37.2566 40.6209 34.534 40.2726 31.2415 40.2726C28.0123 40.2726 25.3213 40.6209 23.1685 41.3174C21.0158 42.0139 19.4012 43.0586 18.3248 44.4516C17.2484 45.7812 16.7102 47.4591 16.7102 49.4853C16.7102 51.5747 17.2801 53.3159 18.4198 54.7089C19.5595 56.1019 21.2057 57.1466 23.3585 57.8431C25.5746 58.5396 28.2022 58.8879 31.2415 58.8879ZM31.2415 29.9203C34.4706 29.9203 37.0666 29.572 39.0295 28.8756C40.9923 28.1791 42.4169 27.166 43.3034 25.8363C44.2531 24.4434 44.728 22.9238 44.728 21.2775C44.728 19.3147 44.1582 17.7001 43.0184 16.4338C41.9421 15.1041 40.3908 14.1543 38.3646 13.5845C36.3385 12.9513 33.9641 12.6347 31.2415 12.6347C28.5822 12.6347 26.2394 12.9513 24.2133 13.5845C22.2504 14.1543 20.6992 15.1041 19.5595 16.4338C18.4831 17.7001 17.9449 19.3147 17.9449 21.2775C17.9449 22.5438 18.1981 23.7152 18.7047 24.7916C19.2112 25.868 20.0027 26.7861 21.0791 27.5459C22.1555 28.3057 23.5168 28.9072 25.163 29.3504C26.8726 29.7303 28.8987 29.9203 31.2415 29.9203Z" fill="#FF6600"/>
</svg>
