<svg width="13" height="11" viewBox="0 0 13 11" fill="none" xmlns="http://www.w3.org/2000/svg">
<path opacity="0.5" d="M4.06622e-09 2.96037L6.2108 6.07719C6.2731 6.10844 6.34228 6.12476 6.4125 6.12476C6.48272 6.12476 6.5519 6.10844 6.6142 6.07719L12.825 2.96094V8.375C12.825 8.84195 12.6399 9.29122 12.3075 9.63063C11.9752 9.97004 11.5208 10.1739 11.0377 10.2003L10.9304 10.2031H1.8946C1.41067 10.2032 0.945069 10.0245 0.593313 9.70381C0.241557 9.38312 0.0303129 8.9447 0.00291484 8.4785L4.06622e-09 8.375V2.96037ZM1.8946 0.078125H10.9304C11.4143 0.0780944 11.8799 0.256749 12.2317 0.57744C12.5834 0.898131 12.7947 1.33655 12.8221 1.80275L12.825 1.90625V2.00975L6.4125 5.22725L4.06622e-09 2.00975V1.90625C-3.16817e-05 1.4393 0.18512 0.990034 0.517472 0.65062C0.849825 0.311206 1.30418 0.107374 1.78734 0.0809376L1.8946 0.078125Z" fill="#3D3D3D"/>
</svg>
