<svg width="62" height="70" viewBox="0 0 62 70" fill="none" xmlns="http://www.w3.org/2000/svg">
<path opacity="0.1" d="M30.7163 69.8548C24.258 69.8548 18.8444 68.9683 14.4755 67.1955C10.1066 65.3593 6.78249 62.7949 4.50307 59.5024C2.22366 56.2099 0.957317 52.4426 0.704049 48.2003H16.8499C16.9765 50.2898 17.6414 52.0627 18.8444 53.519C20.1107 54.9119 21.757 55.9883 23.7831 56.7481C25.8093 57.4446 28.1837 57.7929 30.9063 57.7929C35.7817 57.7929 39.4541 56.7481 41.9235 54.6587C44.3928 52.5059 45.6275 49.6883 45.6275 46.2059C45.6275 43.6732 45.026 41.5837 43.823 39.9375C42.6833 38.2279 41.037 36.9616 38.8842 36.1384C36.7948 35.252 34.2621 34.8088 31.2862 34.8088C27.9304 34.8088 24.9545 35.4103 22.3585 36.6133C19.8258 37.8163 17.9896 39.3993 16.8499 41.3621H2.03371L4.31312 0.522579H57.4045V13.1543H18.9394L17.7997 28.4454L18.5595 28.6354C20.1424 27.1158 22.5168 25.8811 25.6826 24.9313C28.8485 23.9816 32.1093 23.5067 35.4651 23.5067C39.6441 23.5067 43.3164 24.0132 46.4823 25.0263C49.7115 25.976 52.4658 27.4323 54.7452 29.3952C57.0879 31.2947 58.8291 33.6691 59.9688 36.5183C61.1719 39.3043 61.7734 42.5651 61.7734 46.3008C61.7734 51.4928 60.4437 55.83 57.7844 59.3125C55.1884 62.7949 51.5477 65.4226 46.8622 67.1955C42.1767 68.9683 36.7948 69.8548 30.7163 69.8548Z" fill="#FF6600"/>
</svg>
