<svg width="46" height="47" viewBox="0 0 46 47" fill="none" xmlns="http://www.w3.org/2000/svg">
<circle cx="22.6352" cy="23.4282" r="22.6352" fill="#8FD5CC"/>
<path d="M27.3755 27.2946L26.7697 27.8977C26.7697 27.8977 25.3277 29.3304 21.3931 25.4185C17.4586 21.5066 18.9006 20.0739 18.9006 20.0739L19.2814 19.6931C20.2228 18.7584 20.312 17.2565 19.4905 16.1594L17.8128 13.9185C16.7955 12.5604 14.8316 12.3806 13.6665 13.539L11.5761 15.6161C10.9996 16.1913 10.6135 16.9343 10.6601 17.7598C10.7799 19.8729 11.7359 24.4172 17.0672 29.7192C22.722 35.3407 28.0279 35.5644 30.1969 35.362C30.884 35.2981 31.4805 34.9493 31.9611 34.4699L33.8518 32.5899C35.1301 31.321 34.7706 29.144 33.1355 28.2559L30.5924 26.8725C29.5192 26.2906 28.2143 26.4611 27.3755 27.2946Z" fill="#0D1117"/>
</svg>
