<svg width="50" height="67" viewBox="0 0 50 67" fill="none" xmlns="http://www.w3.org/2000/svg">
<path d="M0.440548 4.20492C0.256006 4.41034 0.272933 4.72647 0.478356 4.91101L3.82592 7.91831C4.03135 8.10285 4.34747 8.08592 4.53202 7.8805C4.71656 7.67507 4.69963 7.35895 4.49421 7.1744L1.5186 4.50125L4.19174 1.52564C4.37629 1.32022 4.35936 1.00409 4.15394 0.819545C3.94851 0.635003 3.63238 0.65193 3.44784 0.857353L0.440548 4.20492ZM25.9808 65.056C25.9133 65.3238 26.0756 65.5956 26.3434 65.6631L30.7068 66.7634C30.9746 66.831 31.2464 66.6686 31.3139 66.4009C31.3814 66.1331 31.2191 65.8613 30.9513 65.7938L27.0727 64.8157L28.0508 60.9371C28.1184 60.6694 27.956 60.3976 27.6883 60.33C27.4205 60.2625 27.1487 60.4248 27.0812 60.6926L25.9808 65.056ZM0.839234 5.03835C2.31434 4.95936 3.75388 4.91245 5.158 4.89634L5.14652 3.8964C3.72798 3.91268 2.27444 3.96007 0.785766 4.03978L0.839234 5.03835ZM13.7567 5.20945C16.7868 5.4777 19.6111 5.91003 22.232 6.48807L22.4473 5.51153C19.7814 4.92357 16.9145 4.48509 13.8449 4.21335L13.7567 5.20945ZM30.3948 9.00099C33.2275 10.1621 35.7152 11.5371 37.865 13.0844L38.4492 12.2728C36.2304 10.6758 33.6729 9.2639 30.774 8.0757L30.3948 9.00099ZM43.9129 18.9897C45.6421 21.3385 46.8651 23.8864 47.5932 26.5583L48.558 26.2954C47.7972 23.5033 46.5197 20.8438 44.7182 18.3968L43.9129 18.9897ZM48.2975 34.9509C48.0509 37.6621 47.3652 40.4235 46.245 43.1701L47.171 43.5478C48.3258 40.7163 49.0371 37.8584 49.2934 35.0415L48.2975 34.9509ZM42.0983 50.5997C40.518 52.8056 38.6433 54.9594 36.4778 57.0235L37.1678 57.7473C39.376 55.6425 41.2924 53.4417 42.9112 51.182L42.0983 50.5997ZM29.8226 62.4229C28.6706 63.2221 27.4661 63.9984 26.2093 64.749L26.722 65.6075C27.9979 64.8456 29.2216 64.0569 30.3926 63.2446L29.8226 62.4229Z" fill="white"/>
</svg>
