<svg width="74" height="88" viewBox="0 0 74 88" fill="none" xmlns="http://www.w3.org/2000/svg">
<path d="M5.48954 87.5303C5.78243 87.8232 6.2573 87.8232 6.55019 87.5303L11.3232 82.7574C11.6161 82.4645 11.6161 81.9896 11.3232 81.6967C11.0303 81.4038 10.5554 81.4038 10.2625 81.6967L6.01987 85.9393L1.77723 81.6967C1.48433 81.4038 1.00946 81.4038 0.716568 81.6967C0.423676 81.9896 0.423676 82.4645 0.716568 82.7574L5.48954 87.5303ZM73.6128 5.4325C73.8516 5.09408 73.7709 4.62611 73.4325 4.38726L67.9178 0.494903C67.5794 0.25605 67.1114 0.336753 66.8725 0.675163C66.6337 1.01357 66.7144 1.48154 67.0528 1.7204L71.9548 5.18027L68.4949 10.0822C68.256 10.4206 68.3368 10.8886 68.6752 11.1275C69.0136 11.3663 69.4815 11.2856 69.7204 10.9472L73.6128 5.4325ZM72.8725 4.26092C71.6 4.48038 70.3502 4.7047 69.1228 4.93421L69.3984 6.40866C70.6186 6.1805 71.8615 5.95743 73.1275 5.7391L72.8725 4.26092ZM61.6976 6.44842C59.1394 7.01784 56.6903 7.61722 54.3463 8.25037L54.7374 9.69848C57.0577 9.07174 59.4849 8.47764 62.0235 7.9126L61.6976 6.44842ZM47.0601 10.4429C44.5498 11.2849 42.1794 12.1804 39.9422 13.1359L40.5313 14.5153C42.7281 13.5771 45.0608 12.6956 47.5371 11.865L47.0601 10.4429ZM33.0944 16.4815C30.7848 17.7738 28.6504 19.16 26.6802 20.6508L27.5853 21.8469C29.4964 20.4008 31.5726 19.0519 33.8268 17.7905L33.0944 16.4815ZM20.9589 25.7538C19.1922 27.6181 17.6066 29.6153 16.1872 31.7579L17.4377 32.5863C18.8096 30.5154 20.3412 28.5863 22.0477 26.7855L20.9589 25.7538ZM12.489 38.4645C11.4646 40.7164 10.5704 43.1005 9.79361 45.6258L11.2273 46.0668C11.987 43.5971 12.859 41.2737 13.8544 39.0855L12.489 38.4645ZM7.92749 53.0115C7.43993 55.4004 7.02931 57.8996 6.68782 60.5148L8.1752 60.709C8.51261 58.125 8.91758 55.6614 9.39719 53.3114L7.92749 53.0115ZM5.91178 68.07C5.72318 70.4961 5.57985 73.012 5.477 75.6215L6.97583 75.6805C7.07803 73.0878 7.22032 70.5911 7.40727 68.1863L5.91178 68.07ZM5.29067 83.1966C5.27666 84.4447 5.26987 85.7124 5.26987 87L6.76987 87C6.76987 85.7176 6.77663 84.4556 6.79057 83.2134L5.29067 83.1966Z" fill="white"/>
</svg>
