<svg width="33" height="33" viewBox="0 0 33 33" fill="none" xmlns="http://www.w3.org/2000/svg">
<path d="M29.3162 0.304688H3.17068C1.56564 0.304688 0.265625 1.6047 0.265625 3.20974V29.3552C0.265625 30.9603 1.56564 32.2603 3.17068 32.2603H29.3162C30.9212 32.2603 32.2212 30.9603 32.2212 29.3552V3.20974C32.2212 1.6047 30.9212 0.304688 29.3162 0.304688ZM10.3665 26.4502H6.08155V12.6628H10.3665V26.4502ZM8.18045 10.6917C6.7991 10.6917 5.6821 9.57182 5.6821 8.19337C5.6821 6.81492 6.80055 5.69647 8.18045 5.69647C9.55745 5.69647 10.6773 6.81637 10.6773 8.19337C10.6773 9.57182 9.55745 10.6917 8.18045 10.6917ZM26.4169 26.4502H22.1349V19.7453C22.1349 18.1461 22.1058 16.0893 19.9082 16.0893C17.6785 16.0893 17.3357 17.8309 17.3357 19.6291V26.4502H13.0537V12.6628H17.1643V14.5467H17.2224C17.7947 13.4631 19.1921 12.32 21.2764 12.32C25.6151 12.32 26.4169 15.1757 26.4169 18.8883V26.4502Z" fill="#8FD5CC"/>
</svg>
