<svg width="10" height="13" viewBox="0 0 10 13" fill="none" xmlns="http://www.w3.org/2000/svg">
<path d="M4.8735 0.0859375C3.58144 0.0875134 2.34273 0.618854 1.4291 1.5634C0.515475 2.50795 0.00152947 3.78859 5.18491e-06 5.12438C-0.00154232 6.216 0.343357 7.27799 0.981793 8.14745C0.981793 8.14745 1.11471 8.32837 1.13642 8.35448L4.8735 12.9111L8.61236 8.35219C8.63186 8.32792 8.76521 8.14745 8.76521 8.14745L8.76565 8.14607C9.40378 7.27699 9.74852 6.21549 9.747 5.12438C9.74548 3.78859 9.23153 2.50795 8.3179 1.5634C7.40427 0.618854 6.16557 0.0875134 4.8735 0.0859375ZM4.8735 6.95654C4.523 6.95654 4.18037 6.84909 3.88893 6.64777C3.5975 6.44645 3.37035 6.1603 3.23622 5.82552C3.10209 5.49074 3.06699 5.12235 3.13537 4.76694C3.20375 4.41154 3.37254 4.08508 3.62038 3.82885C3.86823 3.57262 4.184 3.39812 4.52777 3.32742C4.87154 3.25673 5.22786 3.29301 5.55169 3.43169C5.87551 3.57036 6.15229 3.80519 6.34702 4.10649C6.54175 4.40779 6.64568 4.76201 6.64568 5.12438C6.6451 5.61012 6.4582 6.07578 6.12598 6.41925C5.79375 6.76271 5.34333 6.95594 4.8735 6.95654Z" fill="#232323"/>
</svg>
