<svg width="19" height="25" viewBox="0 0 19 25" fill="none" xmlns="http://www.w3.org/2000/svg">
<path d="M9.5 0C6.98136 0.00307185 4.56672 1.03881 2.78577 2.88002C1.00482 4.72123 0.00298142 7.21757 1.0107e-05 9.82143C-0.00300648 11.9493 0.669311 14.0194 1.91383 15.7143C1.91383 15.7143 2.17292 16.067 2.21524 16.1179L9.5 25L16.7882 16.1134C16.8262 16.0661 17.0862 15.7143 17.0862 15.7143L17.087 15.7116C18.3309 14.0175 19.0029 11.9483 19 9.82143C18.997 7.21757 17.9952 4.72123 16.2142 2.88002C14.4333 1.03881 12.0186 0.00307185 9.5 0ZM9.5 13.3929C8.81676 13.3929 8.14886 13.1834 7.58076 12.791C7.01266 12.3985 6.56989 11.8407 6.30842 11.1882C6.04695 10.5356 5.97854 9.81747 6.11184 9.12468C6.24513 8.43189 6.57414 7.79552 7.05727 7.29605C7.5404 6.79657 8.15594 6.45643 8.82605 6.31862C9.49617 6.18082 10.1908 6.25155 10.822 6.52186C11.4532 6.79217 11.9928 7.24993 12.3723 7.83725C12.7519 8.42457 12.9545 9.11507 12.9545 9.82143C12.9534 10.7683 12.5891 11.676 11.9415 12.3455C11.2939 13.015 10.4159 13.3917 9.5 13.3929Z" fill="#8FD5CC"/>
</svg>
