<svg width="10" height="9" viewBox="0 0 10 9" fill="none" xmlns="http://www.w3.org/2000/svg">
<path d="M3.09033e-09 2.78428L4.72021 5.15308C4.76756 5.17684 4.82014 5.18924 4.8735 5.18924C4.92687 5.18924 4.97945 5.17684 5.0268 5.15308L9.74701 2.78471V6.89944C9.74703 7.25433 9.60631 7.59577 9.35373 7.85373C9.10114 8.11169 8.75583 8.2666 8.38863 8.28669L8.30711 8.28883H1.4399C1.07211 8.28885 0.718253 8.15307 0.450918 7.90935C0.183584 7.66562 0.0230378 7.33242 0.00221528 6.9781L3.09033e-09 6.89944V2.78428ZM1.4399 0.59375H8.30711C8.6749 0.593727 9.02875 0.729506 9.29609 0.973233C9.56342 1.21696 9.72397 1.55016 9.74479 1.90448L9.74701 1.98314V2.0618L4.8735 4.50713L3.09033e-09 2.0618V1.98314C-2.40781e-05 1.62825 0.140691 1.28681 0.393279 1.02885C0.645867 0.770894 0.991179 0.61598 1.35838 0.595888L1.4399 0.59375Z" fill="#232323"/>
</svg>
