<svg width="19" height="15" viewBox="0 0 19 15" fill="none" xmlns="http://www.w3.org/2000/svg">
<path d="M6.02402e-09 4.27L9.20118 8.8875C9.29348 8.93381 9.39597 8.95798 9.5 8.95798C9.60403 8.95798 9.70652 8.93381 9.79882 8.8875L19 4.27083V12.2917C19 12.9834 18.7257 13.649 18.2334 14.1519C17.741 14.6547 17.0679 14.9567 16.3521 14.9958L16.1932 15H2.80682C2.08988 15 1.4001 14.7354 0.878983 14.2603C0.357862 13.7852 0.0449079 13.1357 0.00431829 12.445L6.02402e-09 12.2917V4.27ZM2.80682 5.81266e-09H16.1932C16.9101 -4.52889e-05 17.5999 0.264628 18.121 0.739726C18.6421 1.21482 18.9551 1.86433 18.9957 2.555L19 2.70833V2.86167L9.5 7.62833L6.02402e-09 2.86167V2.70833C-4.69358e-05 2.01655 0.274251 1.35098 0.766626 0.848141C1.259 0.345306 1.93212 0.0433322 2.64791 0.00416677L2.80682 5.81266e-09Z" fill="#8FD5CC"/>
</svg>
