<svg width="16" height="19" viewBox="0 0 16 19" fill="none" xmlns="http://www.w3.org/2000/svg">
<path opacity="0.4" d="M10.5984 11.6264C10.4824 11.588 9.7495 11.2535 10.2075 9.84376H10.2009C11.3947 8.5987 12.307 6.59524 12.307 4.6228C12.307 1.58992 10.3154 0 8.00073 0C5.6846 0 3.70392 1.58918 3.70392 4.6228C3.70392 6.60337 4.61112 8.61495 5.81222 9.85705C6.2804 11.1006 5.44321 11.5622 5.26819 11.6272C2.84412 12.5148 0 14.1328 0 15.7301V16.329C0 18.5052 4.167 19 8.02334 19C11.8855 19 16 18.5052 16 16.329V15.7301C16 14.0848 13.142 12.4793 10.5984 11.6264Z" fill="#232323"/>
</svg>
