<svg width="11" height="14" viewBox="0 0 11 14" fill="none" xmlns="http://www.w3.org/2000/svg">
<path d="M7.15389 8.40252C7.07562 8.3766 6.58091 8.15079 6.89005 7.19922H6.88562C7.69143 6.35881 8.30724 5.00648 8.30724 3.67508C8.30724 1.62788 6.9629 0.554688 5.40049 0.554688C3.8371 0.554688 2.50015 1.62738 2.50015 3.67508C2.50015 5.01196 3.11251 6.36978 3.92325 7.20819C4.23927 8.04761 3.67417 8.35915 3.55603 8.40302C1.91978 9.00217 0 10.0943 0 11.1725V11.5767C0 13.0457 2.81273 13.3797 5.41575 13.3797C8.02272 13.3797 10.8 13.0457 10.8 11.5767V11.1725C10.8 10.0619 8.87087 8.97824 7.15389 8.40252Z" fill="#8FD5CC"/>
</svg>
