<svg width="276" height="86" viewBox="0 0 276 86" fill="none" xmlns="http://www.w3.org/2000/svg">
<rect width="274.427" height="86" rx="43" transform="matrix(-1 0 0 1 275.121 0)" fill="#FF6600"/>
<path d="M100.92 53.1145C98.9728 50.9739 98 48.3477 98 45.2337C98 42.1219 98.9728 39.4871 100.92 37.3274C102.866 35.1697 105.339 34.0898 108.34 34.0898C111.096 34.0898 113.366 34.9653 115.151 36.7139V34.7118H122.334V55.713H115.236V53.336H115.151C113.366 55.3297 111.096 56.3265 108.34 56.3265C105.339 56.3265 102.866 55.2572 100.92 53.1145ZM107.023 41.6724C106.088 42.599 105.622 43.7854 105.622 45.2337C105.622 46.6778 106.065 47.8557 106.956 48.7694C107.85 49.6853 109.028 50.1411 110.492 50.1411C111.898 50.1411 113.054 49.6789 113.961 48.7524C114.867 47.828 115.32 46.6544 115.32 45.2337C115.32 43.7854 114.852 42.599 113.919 41.6724C112.984 40.7417 111.843 40.2752 110.492 40.2752C109.112 40.2752 107.956 40.7417 107.023 41.6724Z" fill="black"/>
<path d="M134.833 40.0281C133.482 40.0281 132.32 40.5351 131.347 41.5447C130.372 42.5564 129.887 43.7726 129.887 45.1911C129.887 46.6395 130.372 47.8706 131.347 48.8802C132.32 49.8855 133.482 50.3882 134.833 50.3882C135.485 50.3882 136.101 50.3094 136.681 50.1496C137.259 49.9856 137.686 49.8216 137.956 49.6555L138.327 49.4084L140.758 54.4436C140.566 54.5799 140.302 54.7503 139.965 54.9548C139.627 55.1593 138.855 55.4383 137.652 55.7897C136.453 56.1476 135.162 56.3265 133.778 56.3265C130.722 56.3265 128.038 55.2423 125.725 53.0719C123.417 50.9036 122.265 48.3008 122.265 45.2678C122.265 42.2135 123.417 39.5851 125.725 37.387C128.038 35.1889 130.722 34.0898 133.778 34.0898C135.162 34.0898 136.432 34.256 137.593 34.584C138.758 34.9141 139.581 35.24 140.066 35.5638L140.758 36.0579L138.327 41.0164C137.433 40.3583 136.268 40.0281 134.833 40.0281Z" fill="black"/>
<path d="M161.258 46.2135H146.166C146.166 47.6917 146.638 48.7843 147.584 49.4936C148.529 50.1986 149.555 50.5501 150.665 50.5501C151.829 50.5501 152.749 50.3946 153.425 50.0815C154.1 49.7705 154.87 49.1507 155.737 48.2242L160.928 50.8397C158.768 54.499 155.172 56.3265 150.141 56.3265C147.001 56.3265 144.309 55.2423 142.063 53.0719C139.822 50.9036 138.704 48.2902 138.704 45.2337C138.704 42.173 139.822 39.551 142.063 37.37C144.309 35.1846 147.001 34.0898 150.141 34.0898C153.437 34.0898 156.119 35.0526 158.185 36.978C160.255 38.9035 161.291 41.6554 161.291 45.2337C161.291 45.7236 161.279 46.0495 161.258 46.2135ZM146.368 42.2007H154.277C154.113 41.1101 153.686 40.2731 152.994 39.6873C152.306 39.0973 151.424 38.8013 150.344 38.8013C149.149 38.8013 148.202 39.1165 147.499 39.747C146.794 40.3732 146.419 41.1911 146.368 42.2007Z" fill="black"/>
<path d="M162.512 55.7131V34.7118H169.695V36.9184H169.78C171.641 35.0334 173.629 34.0898 175.739 34.0898C177.252 34.0898 178.67 34.4051 179.993 35.0355C181.32 35.666 182.322 36.6351 182.998 37.9408C185.108 35.3742 187.406 34.0898 189.894 34.0898C192.116 34.0898 194.023 34.7203 195.616 35.9812C197.214 37.2379 198.014 39.2017 198.014 41.8769V55.7131H190.831V43.8365C190.831 42.7183 190.527 41.7832 189.919 41.0335C189.311 40.2837 188.395 39.9089 187.176 39.9089C186.123 39.9089 185.319 40.2305 184.762 40.8716C184.209 41.5148 183.905 42.2837 183.85 43.1805V55.7131H176.676V43.8365C176.676 42.7183 176.368 41.7832 175.756 41.0335C175.148 40.2837 174.236 39.9089 173.021 39.9089C171.911 39.9089 171.079 40.2582 170.522 40.9568C169.97 41.6512 169.695 42.4733 169.695 43.4275V55.7131H162.512Z" fill="#787878"/>
<path d="M200.464 53.0975C198.516 50.9398 197.543 48.3051 197.543 45.1911C197.543 42.0793 198.516 39.453 200.464 37.3103C202.409 35.1633 204.883 34.0898 207.883 34.0898C210.639 34.0898 212.91 35.0867 214.695 37.0803H214.779V34.7118H221.878V66.3628H214.695V53.7109C212.91 55.4553 210.639 56.3265 207.883 56.3265C204.883 56.3265 202.409 55.2509 200.464 53.0975ZM206.499 41.6469C205.608 42.5628 205.165 43.7428 205.165 45.1911C205.165 46.6395 205.632 47.828 206.567 48.7524C207.499 49.6789 208.656 50.1411 210.036 50.1411C211.386 50.1411 212.528 49.6789 213.463 48.7524C214.395 47.828 214.864 46.6395 214.864 45.1911C214.864 43.7726 214.41 42.599 213.505 41.6725C212.597 40.7417 211.441 40.2752 210.036 40.2752C208.571 40.2752 207.394 40.7331 206.499 41.6469Z" fill="#787878"/>
<path d="M65.4336 52.0132C63.7584 55.1721 66.0259 58.9997 69.5795 58.9997H57.9092C54.359 58.9997 52.088 55.1757 53.7633 52.0132L54.4046 50.7998L68.2828 24.6367L69.4113 22.5072C71.1812 19.1643 75.9299 19.1643 77.6997 22.5072L79.3889 25.6944L74.118 35.6382L66.0749 50.7998L65.4336 52.0132Z" fill="black"/>
<path d="M89.2131 59.0007H80.6338C77.0836 59.0007 74.8127 55.1767 76.4879 52.0142L78.482 48.2539L84.92 36.1133L93.352 52.0142C95.0342 55.1767 92.7633 59.0007 89.2131 59.0007Z" fill="black"/>
<path d="M84.9163 36.1089V36.1159L78.4748 48.2494C79.032 47.1847 79.1932 45.9076 78.8112 44.6589C78.7902 44.5988 78.7727 44.5351 78.7517 44.475C78.6711 44.2521 78.5694 44.0293 78.4573 43.8099L74.8545 37.018L74.1221 35.6348L79.3965 25.6875L80.129 27.0706L84.1347 34.6196L84.9163 36.1089Z" fill="#7C7C7C"/>
<path d="M89.2131 59.0007H80.6338C77.0836 59.0007 74.8127 55.1767 76.4879 52.0142L78.482 48.2539L84.92 36.1133L93.352 52.0142C95.0342 55.1767 92.7633 59.0007 89.2131 59.0007Z" fill="black"/>
<path d="M89.2131 59.0007H80.6338C77.0836 59.0007 74.8127 55.1767 76.4879 52.0142L78.482 48.2539L84.92 36.1133L93.352 52.0142C95.0342 55.1767 92.7633 59.0007 89.2131 59.0007Z" fill="black"/>
<g opacity="0.1">
<mask id="mask0_80_470" style="mask-type:luminance" maskUnits="userSpaceOnUse" x="74" y="25" width="7" height="13">
<path d="M80.1181 25.6953H74.1147V37.0258H80.1181V25.6953Z" fill="white"/>
</mask>
<g mask="url(#mask0_80_470)">
<path d="M80.1181 27.0749L74.8437 37.0258L74.1147 35.6427L79.3857 25.6953L80.1181 27.0749Z" fill="black"/>
</g>
</g>
<g opacity="0.1">
<mask id="mask1_80_470" style="mask-type:luminance" maskUnits="userSpaceOnUse" x="78" y="34" width="7" height="15">
<path d="M84.9214 34.625H78.48V48.2513H84.9214V34.625Z" fill="white"/>
</mask>
<g mask="url(#mask1_80_470)">
<path d="M84.9214 36.1068V36.1139L78.48 48.2474C79.0372 47.1826 79.1984 45.9056 78.8164 44.6569L84.1364 34.6211L84.9214 36.1068Z" fill="black"/>
</g>
</g>
</svg>
