<svg width="1146" height="204" viewBox="0 0 1146 204" fill="none" xmlns="http://www.w3.org/2000/svg">
<rect x="198" y="102" width="148" height="2" fill="white"/>
<rect x="803" y="102" width="146" height="2" fill="white"/>
<rect x="484" y="102" width="175" height="2" fill="white"/>
<circle cx="102" cy="102" r="93.5" stroke="white" stroke-dasharray="10 10"/>
<circle cx="102" cy="102" r="85" fill="#3A716A"/>
<circle cx="102" cy="8" r="8" fill="white"/>
<circle cx="102" cy="8" r="5" fill="#8FD5CC"/>
<circle cx="102" cy="196" r="8" fill="white"/>
<circle cx="102" cy="196" r="5" fill="#8FD5CC"/>
<circle cx="196" cy="104" r="8" fill="white"/>
<circle cx="196" cy="104" r="5" fill="#8FD5CC"/>
<circle cx="8" cy="104" r="8" fill="white"/>
<circle cx="8" cy="104" r="5" fill="#8FD5CC"/>
<circle cx="416" cy="102" r="68.5" stroke="white" stroke-dasharray="10 10"/>
<circle cx="416.149" cy="101.856" r="60.2582" fill="#3A716A"/>
<circle cx="416.14" cy="32.6714" r="5.67136" fill="white"/>
<circle cx="416.138" cy="32.6716" r="3.5446" fill="#8FD5CC"/>
<circle cx="416.14" cy="170.671" r="5.67136" fill="white"/>
<circle cx="416.138" cy="170.672" r="3.5446" fill="#8FD5CC"/>
<circle cx="484.671" cy="103.273" r="5.67136" fill="white"/>
<circle cx="484.67" cy="103.273" r="3.5446" fill="#8FD5CC"/>
<circle cx="347.671" cy="103.273" r="5.67136" fill="white"/>
<circle cx="347.67" cy="103.273" r="3.5446" fill="#8FD5CC"/>
<circle cx="730" cy="102" r="68.5" stroke="white" stroke-dasharray="10 10"/>
<circle cx="730.14" cy="32.6714" r="5.67136" fill="white"/>
<circle cx="730.138" cy="32.6716" r="3.5446" fill="#8FD5CC"/>
<circle cx="730.14" cy="170.671" r="5.67136" fill="white"/>
<circle cx="730.138" cy="170.672" r="3.5446" fill="#8FD5CC"/>
<circle cx="798.671" cy="103.273" r="5.67136" fill="white"/>
<circle cx="798.67" cy="103.273" r="3.5446" fill="#8FD5CC"/>
<circle cx="661.671" cy="103.273" r="5.67136" fill="white"/>
<circle cx="661.67" cy="103.273" r="3.5446" fill="#8FD5CC"/>
<circle cx="730.373" cy="102.373" r="60.3728" fill="#3A716A"/>
<circle cx="1044" cy="102" r="93.5" stroke="white" stroke-dasharray="10 10"/>
<circle cx="1044" cy="102" r="85" fill="#3A716A"/>
<circle cx="1044" cy="8" r="8" fill="white"/>
<circle cx="1044" cy="8" r="5" fill="#8FD5CC"/>
<circle cx="1044" cy="196" r="8" fill="white"/>
<circle cx="1044" cy="196" r="5" fill="#8FD5CC"/>
<circle cx="1138" cy="104" r="8" fill="white"/>
<circle cx="1138" cy="104" r="5" fill="#8FD5CC"/>
<circle cx="950" cy="104" r="8" fill="white"/>
<circle cx="950" cy="104" r="5" fill="#8FD5CC"/>
<g filter="url(#filter0_d_1_1004)">
<circle cx="102.332" cy="102.332" r="74.3315" fill="#8FD5CC"/>
</g>
<circle cx="102.332" cy="102.332" r="67.5861" stroke="white" stroke-width="1.43707" stroke-dasharray="7.19 7.19"/>
<path d="M57.1159 108.303V94.8955H63.9942C64.9138 94.8955 65.7046 94.9997 66.3667 95.2081C67.0288 95.4043 67.5744 95.6986 68.0035 96.0909C68.4327 96.471 68.7453 96.9308 68.9415 97.4703C69.1499 97.9975 69.2541 98.5983 69.2541 99.2726C69.2541 100.278 69.0334 101.106 68.5921 101.755C68.1629 102.393 67.556 102.871 66.7713 103.19C65.9866 103.496 65.0609 103.65 63.9942 103.65L60.0585 103.631V101.369L63.6632 101.388C64.2027 101.388 64.6441 101.308 64.9874 101.149C65.3429 100.989 65.6065 100.756 65.7782 100.45C65.9498 100.143 66.0357 99.7876 66.0357 99.383C66.0357 98.9048 65.9376 98.5186 65.7414 98.2243C65.5452 97.93 65.2694 97.7216 64.9138 97.599C64.5582 97.4641 64.1414 97.3967 63.6632 97.3967H59.6355L60.316 96.6978V108.303H57.1159ZM70.5822 108.303V98.445H73.3777L73.488 100.008H73.6168C73.8252 99.481 74.1624 99.0642 74.6283 98.7576C75.0942 98.4511 75.6521 98.2979 76.3019 98.2979C76.4613 98.2979 76.6084 98.304 76.7433 98.3163C76.8782 98.3163 77.0008 98.3285 77.1111 98.353V101.13C76.9762 101.106 76.8291 101.087 76.6697 101.075C76.5226 101.063 76.3755 101.057 76.2283 101.057C75.7011 101.057 75.2475 101.142 74.8674 101.314C74.4995 101.486 74.2114 101.762 74.003 102.142C73.7945 102.522 73.6842 103.012 73.6719 103.613V108.303H70.5822ZM83.4633 108.487C82.5683 108.487 81.759 108.376 81.0356 108.156C80.3123 107.923 79.6869 107.585 79.1597 107.144C78.6325 106.703 78.2279 106.169 77.9459 105.544C77.6639 104.906 77.5229 104.183 77.5229 103.374C77.5229 102.307 77.7681 101.394 78.2586 100.634C78.7612 99.8734 79.454 99.291 80.3368 98.8864C81.2318 98.4695 82.274 98.2611 83.4633 98.2611C84.3461 98.2611 85.1492 98.3776 85.8726 98.6105C86.6082 98.8435 87.2335 99.1806 87.7485 99.622C88.2757 100.051 88.6803 100.585 88.9623 101.222C89.2443 101.86 89.3853 102.577 89.3853 103.374C89.3853 104.428 89.1401 105.342 88.6496 106.114C88.1592 106.887 87.4726 107.475 86.5898 107.88C85.707 108.284 84.6649 108.487 83.4633 108.487ZM83.4633 106.114C84.0641 106.114 84.5729 106.004 84.9898 105.783C85.4189 105.55 85.7438 105.231 85.9645 104.827C86.1852 104.41 86.2956 103.926 86.2956 103.374C86.2956 102.957 86.2343 102.583 86.1116 102.252C85.989 101.909 85.8051 101.621 85.5599 101.388C85.3147 101.142 85.0143 100.958 84.6587 100.836C84.3154 100.701 83.9169 100.634 83.4633 100.634C82.8625 100.634 82.3476 100.744 81.9184 100.965C81.5016 101.185 81.1828 101.504 80.9621 101.921C80.7414 102.326 80.631 102.81 80.631 103.374C80.631 103.791 80.6923 104.171 80.8149 104.514C80.9498 104.845 81.1337 105.133 81.3667 105.379C81.6119 105.611 81.9062 105.795 82.2495 105.93C82.605 106.053 83.0096 106.114 83.4633 106.114ZM95.2741 108.487C94.5507 108.487 93.8886 108.37 93.2878 108.137C92.6993 107.892 92.1844 107.549 91.743 107.107C91.3138 106.654 90.9828 106.114 90.7498 105.489C90.5169 104.851 90.4004 104.146 90.4004 103.374C90.4004 102.332 90.6027 101.431 91.0073 100.67C91.4242 99.8979 92.0005 99.3033 92.7361 98.8864C93.4718 98.4695 94.3239 98.2611 95.2925 98.2611C95.832 98.2611 96.3347 98.3346 96.8006 98.4818C97.2788 98.6166 97.6956 98.819 98.0512 99.0887C98.4068 99.3462 98.6826 99.6588 98.8788 100.027H99.0075V94.8955H102.116V108.303H99.1547L99.0811 106.739H98.9524C98.6704 107.254 98.2228 107.677 97.6098 108.008C96.9968 108.327 96.2182 108.487 95.2741 108.487ZM96.2305 106.133C96.8067 106.133 97.2971 106.028 97.7018 105.82C98.1186 105.599 98.4374 105.299 98.6581 104.919C98.8788 104.526 98.9891 104.085 98.9891 103.595V103.153C98.9891 102.785 98.9278 102.448 98.8052 102.142C98.6826 101.823 98.4987 101.553 98.2535 101.332C98.0205 101.099 97.7324 100.922 97.3891 100.799C97.0458 100.676 96.6596 100.615 96.2305 100.615C95.6787 100.615 95.2005 100.726 94.7959 100.946C94.3913 101.155 94.0787 101.467 93.858 101.884C93.6373 102.289 93.5269 102.785 93.5269 103.374C93.5269 103.95 93.6373 104.447 93.858 104.864C94.0787 105.268 94.3913 105.581 94.7959 105.802C95.2005 106.022 95.6787 106.133 96.2305 106.133ZM108.127 108.468C107.269 108.468 106.521 108.327 105.883 108.045C105.246 107.751 104.743 107.267 104.375 106.592C104.02 105.918 103.842 105.011 103.842 103.87V98.445H106.95V103.319C106.95 103.907 107.018 104.416 107.152 104.845C107.3 105.262 107.539 105.581 107.87 105.802C108.201 106.022 108.642 106.133 109.194 106.133C109.758 106.133 110.242 106.016 110.647 105.783C111.051 105.55 111.364 105.225 111.585 104.808C111.805 104.379 111.916 103.889 111.916 103.337V98.445H115.024V108.303H112.045L111.916 106.574H111.769C111.462 107.162 110.978 107.628 110.316 107.972C109.654 108.303 108.924 108.468 108.127 108.468ZM122.128 108.468C121.233 108.468 120.43 108.352 119.719 108.119C119.007 107.886 118.401 107.543 117.898 107.089C117.407 106.623 117.027 106.077 116.758 105.452C116.488 104.815 116.353 104.11 116.353 103.337C116.353 102.283 116.598 101.375 117.089 100.615C117.591 99.855 118.284 99.2726 119.167 98.868C120.062 98.4634 121.098 98.2611 122.275 98.2611C123.354 98.2611 124.298 98.4266 125.107 98.7576C125.916 99.0764 126.554 99.524 127.02 100.1C127.486 100.664 127.743 101.326 127.792 102.086H124.721C124.647 101.768 124.494 101.504 124.261 101.296C124.041 101.075 123.759 100.909 123.415 100.799C123.072 100.689 122.686 100.634 122.257 100.634C121.668 100.634 121.165 100.75 120.749 100.983C120.332 101.204 120.013 101.522 119.792 101.939C119.571 102.344 119.461 102.816 119.461 103.355C119.461 103.944 119.571 104.447 119.792 104.864C120.025 105.28 120.35 105.593 120.767 105.802C121.184 106.01 121.674 106.114 122.238 106.114C122.655 106.114 123.035 106.053 123.378 105.93C123.734 105.808 124.028 105.636 124.261 105.415C124.506 105.195 124.672 104.925 124.758 104.606H127.848C127.786 105.403 127.492 106.09 126.965 106.666C126.438 107.242 125.751 107.69 124.905 108.008C124.071 108.315 123.146 108.468 122.128 108.468ZM134.721 108.468C133.52 108.468 132.478 108.266 131.595 107.861C130.712 107.457 130.026 106.88 129.535 106.133C129.045 105.385 128.799 104.483 128.799 103.429C128.799 102.338 129.045 101.412 129.535 100.652C130.038 99.8795 130.724 99.291 131.595 98.8864C132.478 98.4695 133.508 98.2611 134.685 98.2611C135.935 98.2611 136.996 98.494 137.866 98.96C138.749 99.4136 139.405 100.07 139.834 100.928C140.276 101.786 140.453 102.822 140.368 104.036H131.908C131.92 104.514 132.042 104.931 132.275 105.287C132.521 105.642 132.852 105.918 133.269 106.114C133.698 106.298 134.206 106.39 134.795 106.39C135.469 106.39 136.039 106.28 136.505 106.059C136.984 105.826 137.29 105.526 137.425 105.158H140.349C140.263 105.808 139.963 106.384 139.448 106.887C138.945 107.389 138.283 107.782 137.462 108.064C136.653 108.333 135.739 108.468 134.721 108.468ZM131.834 102.509L131.724 102.344H137.462L137.315 102.491C137.302 102.062 137.192 101.688 136.984 101.369C136.775 101.05 136.475 100.805 136.082 100.634C135.702 100.462 135.23 100.376 134.666 100.376C134.127 100.376 133.655 100.462 133.25 100.634C132.846 100.793 132.521 101.032 132.275 101.351C132.042 101.67 131.895 102.056 131.834 102.509ZM141.795 108.303V98.445H144.59L144.7 100.008H144.829C145.038 99.481 145.375 99.0642 145.841 98.7576C146.307 98.4511 146.864 98.2979 147.514 98.2979C147.674 98.2979 147.821 98.304 147.956 98.3163C148.091 98.3163 148.213 98.3285 148.324 98.353V101.13C148.189 101.106 148.042 101.087 147.882 101.075C147.735 101.063 147.588 101.057 147.441 101.057C146.914 101.057 146.46 101.142 146.08 101.314C145.712 101.486 145.424 101.762 145.215 102.142C145.007 102.522 144.897 103.012 144.884 103.613V108.303H141.795Z" fill="#232323"/>
<g filter="url(#filter1_d_1_1004)">
<circle cx="416.178" cy="102.172" r="50.1738" fill="#8FD5CC"/>
</g>
<circle cx="416.176" cy="102.172" r="45.7225" stroke="white" stroke-width="0.766304" stroke-dasharray="4.85 4.85"/>
<path d="M384.964 106.427V97.3769H392.251V98.3327H385.733L386.118 97.9479V101.647L385.82 101.362H391.642V102.256H385.82L386.118 101.958V105.843L385.733 105.458H392.263V106.427H384.964ZM392.742 106.427L395.635 103.075L392.879 99.9093H394.22L396.33 102.442H396.392L398.49 99.9093H399.793L397.1 103.05L399.942 106.427H398.614L396.38 103.77H396.305L394.021 106.427H392.742ZM403.552 106.538C402.997 106.538 402.497 106.46 402.05 106.303C401.603 106.145 401.218 105.922 400.895 105.632C400.581 105.334 400.341 104.978 400.175 104.565C400.01 104.151 399.927 103.687 399.927 103.174C399.927 102.487 400.08 101.896 400.386 101.399C400.693 100.894 401.123 100.505 401.677 100.232C402.232 99.9507 402.877 99.81 403.614 99.81C404.251 99.81 404.814 99.9052 405.302 100.096C405.799 100.286 406.196 100.555 406.494 100.902C406.8 101.242 406.982 101.643 407.04 102.107H405.935C405.844 101.8 405.687 101.544 405.464 101.337C405.249 101.13 404.984 100.973 404.669 100.865C404.355 100.758 404.003 100.704 403.614 100.704C403.093 100.704 402.637 100.807 402.248 101.014C401.859 101.221 401.557 101.511 401.342 101.883C401.135 102.247 401.032 102.678 401.032 103.174C401.032 103.679 401.131 104.118 401.33 104.49C401.537 104.854 401.831 105.136 402.211 105.334C402.592 105.533 403.051 105.632 403.589 105.632C403.995 105.632 404.359 105.57 404.682 105.446C405.013 105.322 405.29 105.148 405.513 104.925C405.737 104.693 405.886 104.428 405.96 104.13H407.09C407.024 104.61 406.825 105.032 406.494 105.396C406.163 105.761 405.741 106.042 405.228 106.241C404.723 106.439 404.164 106.538 403.552 106.538ZM408.202 106.427V97.3769H409.319V101.349H409.393C409.642 100.853 410.014 100.472 410.511 100.207C411.007 99.9424 411.554 99.81 412.149 99.81C412.572 99.81 412.952 99.8638 413.292 99.9714C413.639 100.079 413.937 100.253 414.185 100.493C414.442 100.725 414.641 101.035 414.781 101.424C414.922 101.813 414.992 102.289 414.992 102.851V106.427H413.875V103.05C413.875 102.504 413.801 102.057 413.652 101.709C413.503 101.362 413.275 101.105 412.969 100.94C412.671 100.774 412.29 100.691 411.827 100.691C411.33 100.691 410.891 100.799 410.511 101.014C410.138 101.221 409.845 101.511 409.629 101.883C409.422 102.256 409.319 102.694 409.319 103.199V106.427H408.202ZM419.315 106.538C418.827 106.538 418.384 106.46 417.987 106.303C417.59 106.145 417.246 105.918 416.957 105.62C416.667 105.322 416.444 104.97 416.286 104.565C416.137 104.151 416.063 103.687 416.063 103.174C416.063 102.479 416.2 101.879 416.473 101.374C416.746 100.869 417.126 100.485 417.615 100.22C418.103 99.9466 418.67 99.81 419.315 99.81C419.779 99.81 420.193 99.868 420.557 99.9838C420.921 100.1 421.231 100.265 421.488 100.48C421.745 100.696 421.939 100.944 422.071 101.225H422.133L422.171 99.9093H423.226V106.427H422.121V105.024H422.059C421.852 105.479 421.5 105.847 421.004 106.129C420.507 106.402 419.944 106.538 419.315 106.538ZM419.613 105.657C420.135 105.657 420.582 105.554 420.954 105.347C421.335 105.132 421.625 104.854 421.823 104.515C422.022 104.176 422.121 103.807 422.121 103.41V102.839C422.121 102.458 422.022 102.107 421.823 101.784C421.625 101.453 421.335 101.188 420.954 100.989C420.582 100.791 420.131 100.691 419.601 100.691C419.121 100.691 418.699 100.791 418.335 100.989C417.971 101.18 417.685 101.461 417.478 101.834C417.28 102.198 417.18 102.645 417.18 103.174C417.18 103.671 417.28 104.109 417.478 104.49C417.685 104.863 417.966 105.152 418.322 105.359C418.686 105.558 419.117 105.657 419.613 105.657ZM424.701 106.427V99.9093H425.794L425.819 101.349H425.893C426.141 100.853 426.514 100.472 427.01 100.207C427.515 99.9424 428.061 99.81 428.649 99.81C429.071 99.81 429.452 99.8638 429.791 99.9714C430.139 100.079 430.437 100.253 430.685 100.493C430.942 100.725 431.14 101.035 431.281 101.424C431.422 101.813 431.492 102.289 431.492 102.851V106.427H430.375V103.05C430.375 102.504 430.3 102.057 430.151 101.709C430.002 101.362 429.775 101.105 429.468 100.94C429.17 100.774 428.79 100.691 428.326 100.691C427.83 100.691 427.391 100.799 427.01 101.014C426.638 101.221 426.344 101.511 426.129 101.883C425.922 102.256 425.819 102.694 425.819 103.199V106.427H424.701ZM436.014 108.624C435.385 108.624 434.839 108.541 434.375 108.376C433.912 108.219 433.547 107.987 433.283 107.681C433.026 107.374 432.873 107.014 432.823 106.601H433.891C433.941 106.865 434.056 107.089 434.239 107.271C434.429 107.461 434.677 107.598 434.983 107.681C435.29 107.772 435.633 107.817 436.014 107.817C436.502 107.817 436.92 107.755 437.268 107.631C437.623 107.507 437.901 107.304 438.099 107.023C438.298 106.75 438.397 106.398 438.397 105.967V104.664H438.323C438.124 105.086 437.781 105.421 437.292 105.669C436.812 105.918 436.274 106.042 435.679 106.042C435.19 106.042 434.756 105.967 434.375 105.818C433.994 105.669 433.667 105.458 433.394 105.185C433.121 104.912 432.914 104.585 432.774 104.205C432.633 103.816 432.563 103.389 432.563 102.926C432.563 102.297 432.695 101.751 432.96 101.287C433.233 100.816 433.605 100.451 434.077 100.195C434.557 99.93 435.112 99.7976 435.741 99.7976C436.353 99.7976 436.883 99.9259 437.33 100.182C437.777 100.431 438.108 100.766 438.323 101.188H438.41L438.435 99.9093H439.502V105.881C439.502 106.319 439.428 106.708 439.279 107.047C439.13 107.395 438.906 107.685 438.608 107.916C438.319 108.148 437.954 108.322 437.516 108.438C437.077 108.562 436.577 108.624 436.014 108.624ZM436.001 105.185C436.481 105.185 436.899 105.103 437.255 104.937C437.619 104.772 437.901 104.54 438.099 104.242C438.298 103.944 438.397 103.605 438.397 103.224V102.765C438.397 102.343 438.298 101.974 438.099 101.66C437.909 101.345 437.636 101.101 437.28 100.927C436.932 100.745 436.514 100.654 436.026 100.654C435.554 100.654 435.141 100.749 434.785 100.94C434.437 101.13 434.164 101.395 433.965 101.734C433.775 102.065 433.68 102.463 433.68 102.926C433.68 103.398 433.775 103.803 433.965 104.143C434.164 104.482 434.437 104.743 434.785 104.925C435.132 105.098 435.538 105.185 436.001 105.185ZM444.3 106.538C443.547 106.538 442.893 106.402 442.338 106.129C441.784 105.856 441.353 105.467 441.047 104.962C440.749 104.457 440.6 103.865 440.6 103.187C440.6 102.5 440.749 101.904 441.047 101.399C441.345 100.894 441.767 100.505 442.313 100.232C442.868 99.9507 443.518 99.81 444.262 99.81C445.032 99.81 445.686 99.9507 446.224 100.232C446.77 100.513 447.18 100.919 447.453 101.449C447.726 101.978 447.838 102.616 447.788 103.36H441.705C441.73 103.857 441.846 104.279 442.053 104.627C442.268 104.974 442.57 105.239 442.959 105.421C443.348 105.603 443.803 105.694 444.325 105.694C444.937 105.694 445.45 105.583 445.864 105.359C446.286 105.127 446.555 104.821 446.671 104.44H447.738C447.664 104.863 447.465 105.231 447.143 105.545C446.828 105.86 446.427 106.104 445.938 106.278C445.45 106.452 444.904 106.538 444.3 106.538ZM441.705 102.74L441.631 102.665H446.758L446.671 102.752C446.671 102.297 446.571 101.912 446.373 101.598C446.174 101.283 445.893 101.047 445.529 100.89C445.173 100.725 444.747 100.642 444.25 100.642C443.745 100.642 443.311 100.729 442.947 100.902C442.582 101.068 442.293 101.308 442.078 101.622C441.871 101.937 441.747 102.309 441.705 102.74Z" fill="#232323"/>
<g filter="url(#filter2_d_1_1004)">
<circle cx="730.178" cy="102.172" r="50.1738" fill="#8FD5CC"/>
</g>
<circle cx="730.176" cy="102.172" r="45.7225" stroke="white" stroke-width="0.766304" stroke-dasharray="4.85 4.85"/>
<path d="M713.828 108.537L710.402 106.538C709.674 106.53 709.012 106.414 708.416 106.191C707.828 105.967 707.323 105.653 706.901 105.247C706.488 104.834 706.169 104.345 705.945 103.783C705.73 103.211 705.623 102.587 705.623 101.908C705.623 101.205 705.734 100.571 705.958 100.009C706.181 99.4376 706.504 98.9493 706.926 98.5438C707.356 98.1383 707.87 97.8279 708.465 97.6127C709.07 97.3893 709.744 97.2775 710.489 97.2775C711.242 97.2775 711.917 97.3893 712.512 97.6127C713.108 97.8279 713.617 98.1424 714.039 98.5562C714.47 98.9617 714.797 99.4459 715.02 100.009C715.244 100.571 715.355 101.205 715.355 101.908C715.355 102.703 715.202 103.414 714.896 104.043C714.59 104.664 714.155 105.173 713.593 105.57C713.03 105.967 712.359 106.224 711.581 106.34L714.002 107.606V108.537H713.828ZM710.489 105.57C711.259 105.57 711.917 105.421 712.463 105.123C713.017 104.825 713.444 104.403 713.741 103.857C714.039 103.303 714.188 102.653 714.188 101.908C714.188 101.337 714.102 100.828 713.928 100.381C713.762 99.9259 713.518 99.5411 713.195 99.2266C712.873 98.9038 712.479 98.6596 712.016 98.4941C711.561 98.3203 711.052 98.2334 710.489 98.2334C709.728 98.2334 709.07 98.3824 708.515 98.6803C707.961 98.9783 707.534 99.4004 707.236 99.9466C706.939 100.493 706.79 101.147 706.79 101.908C706.79 102.471 706.876 102.98 707.05 103.435C707.224 103.882 707.472 104.267 707.795 104.589C708.118 104.912 708.503 105.156 708.95 105.322C709.405 105.487 709.918 105.57 710.489 105.57ZM719.321 106.538C718.766 106.538 718.274 106.439 717.844 106.241C717.413 106.042 717.078 105.723 716.838 105.285C716.598 104.838 716.478 104.246 716.478 103.509V99.9093H717.583V103.311C717.583 103.84 717.657 104.279 717.806 104.627C717.964 104.966 718.195 105.223 718.502 105.396C718.808 105.562 719.189 105.645 719.644 105.645C720.14 105.645 720.575 105.541 720.947 105.334C721.32 105.119 721.613 104.825 721.829 104.453C722.044 104.072 722.151 103.634 722.151 103.137V99.9093H723.256V106.427H722.189L722.151 104.999H722.077C721.837 105.479 721.469 105.856 720.972 106.129C720.475 106.402 719.925 106.538 719.321 106.538ZM728.016 106.538C727.263 106.538 726.609 106.402 726.055 106.129C725.5 105.856 725.07 105.467 724.763 104.962C724.466 104.457 724.317 103.865 724.317 103.187C724.317 102.5 724.466 101.904 724.763 101.399C725.061 100.894 725.484 100.505 726.03 100.232C726.584 99.9507 727.234 99.81 727.979 99.81C728.748 99.81 729.402 99.9507 729.94 100.232C730.486 100.513 730.896 100.919 731.169 101.449C731.442 101.978 731.554 102.616 731.504 103.36H725.421C725.446 103.857 725.562 104.279 725.769 104.627C725.984 104.974 726.286 105.239 726.675 105.421C727.064 105.603 727.519 105.694 728.041 105.694C728.653 105.694 729.166 105.583 729.58 105.359C730.002 105.127 730.271 104.821 730.387 104.44H731.455C731.38 104.863 731.182 105.231 730.859 105.545C730.544 105.86 730.143 106.104 729.655 106.278C729.166 106.452 728.62 106.538 728.016 106.538ZM725.421 102.74L725.347 102.665H730.474L730.387 102.752C730.387 102.297 730.288 101.912 730.089 101.598C729.891 101.283 729.609 101.047 729.245 100.89C728.889 100.725 728.463 100.642 727.966 100.642C727.462 100.642 727.027 100.729 726.663 100.902C726.299 101.068 726.009 101.308 725.794 101.622C725.587 101.937 725.463 102.309 725.421 102.74ZM735.421 106.538C734.866 106.538 734.374 106.439 733.943 106.241C733.513 106.042 733.178 105.723 732.938 105.285C732.698 104.838 732.578 104.246 732.578 103.509V99.9093H733.683V103.311C733.683 103.84 733.757 104.279 733.906 104.627C734.063 104.966 734.295 105.223 734.601 105.396C734.907 105.562 735.288 105.645 735.743 105.645C736.24 105.645 736.674 105.541 737.047 105.334C737.419 105.119 737.713 104.825 737.928 104.453C738.143 104.072 738.251 103.634 738.251 103.137V99.9093H739.356V106.427H738.288L738.251 104.999H738.176C737.936 105.479 737.568 105.856 737.072 106.129C736.575 106.402 736.025 106.538 735.421 106.538ZM744.116 106.538C743.362 106.538 742.709 106.402 742.154 106.129C741.6 105.856 741.169 105.467 740.863 104.962C740.565 104.457 740.416 103.865 740.416 103.187C740.416 102.5 740.565 101.904 740.863 101.399C741.161 100.894 741.583 100.505 742.129 100.232C742.684 99.9507 743.333 99.81 744.078 99.81C744.848 99.81 745.502 99.9507 746.04 100.232C746.586 100.513 746.996 100.919 747.269 101.449C747.542 101.978 747.654 102.616 747.604 103.36H741.521C741.546 103.857 741.662 104.279 741.869 104.627C742.084 104.974 742.386 105.239 742.775 105.421C743.164 105.603 743.619 105.694 744.14 105.694C744.753 105.694 745.266 105.583 745.68 105.359C746.102 105.127 746.371 104.821 746.487 104.44H747.554C747.48 104.863 747.281 105.231 746.958 105.545C746.644 105.86 746.243 106.104 745.754 106.278C745.266 106.452 744.72 106.538 744.116 106.538ZM741.521 102.74L741.447 102.665H746.574L746.487 102.752C746.487 102.297 746.387 101.912 746.189 101.598C745.99 101.283 745.709 101.047 745.345 100.89C744.989 100.725 744.562 100.642 744.066 100.642C743.561 100.642 743.127 100.729 742.762 100.902C742.398 101.068 742.109 101.308 741.893 101.622C741.687 101.937 741.562 102.309 741.521 102.74ZM751.656 106.551C750.638 106.551 749.844 106.356 749.273 105.967C748.71 105.57 748.416 105.045 748.391 104.391H749.496C749.505 104.829 749.699 105.177 750.08 105.434C750.469 105.682 751.003 105.806 751.681 105.806C752.294 105.806 752.782 105.719 753.146 105.545C753.519 105.363 753.705 105.082 753.705 104.701C753.705 104.42 753.639 104.205 753.506 104.056C753.374 103.898 753.154 103.787 752.848 103.72C752.542 103.646 752.12 103.58 751.582 103.522C751.061 103.472 750.614 103.406 750.241 103.323C749.877 103.232 749.575 103.12 749.335 102.988C749.095 102.847 748.917 102.674 748.801 102.467C748.685 102.251 748.627 101.995 748.627 101.697C748.627 101.3 748.751 100.96 749 100.679C749.248 100.389 749.596 100.17 750.043 100.021C750.489 99.8638 751.019 99.7852 751.632 99.7852C752.252 99.7852 752.778 99.868 753.208 100.033C753.639 100.199 753.974 100.435 754.214 100.741C754.462 101.047 754.603 101.411 754.636 101.834H753.568C753.543 101.527 753.444 101.279 753.27 101.089C753.096 100.898 752.869 100.762 752.587 100.679C752.314 100.588 751.996 100.542 751.632 100.542C751.077 100.542 750.618 100.629 750.254 100.803C749.898 100.969 749.72 101.242 749.72 101.622C749.72 101.862 749.79 102.053 749.931 102.194C750.072 102.326 750.295 102.429 750.601 102.504C750.907 102.578 751.301 102.64 751.781 102.69C752.31 102.74 752.765 102.806 753.146 102.889C753.535 102.963 753.85 103.071 754.09 103.211C754.338 103.352 754.52 103.534 754.636 103.758C754.752 103.981 754.81 104.267 754.81 104.614C754.81 105.194 754.549 105.661 754.027 106.017C753.514 106.373 752.724 106.551 751.656 106.551Z" fill="#232323"/>
<g filter="url(#filter3_d_1_1004)">
<circle cx="1044.33" cy="102.332" r="74.3315" fill="#8FD5CC"/>
</g>
<circle cx="1044.33" cy="102.332" r="67.7299" stroke="white" stroke-width="1.14946" stroke-dasharray="7.19 7.19"/>
<path d="M999.589 108.468C998.4 108.468 997.339 108.309 996.407 107.99C995.475 107.659 994.678 107.193 994.016 106.592C993.367 105.979 992.87 105.256 992.527 104.422C992.183 103.576 992.012 102.632 992.012 101.59C992.012 100.56 992.183 99.622 992.527 98.776C992.87 97.93 993.367 97.2066 994.016 96.6059C994.678 96.0051 995.475 95.5453 996.407 95.2265C997.339 94.8955 998.406 94.7299 999.607 94.7299C1000.96 94.7299 1002.13 94.9323 1003.12 95.3369C1004.13 95.7292 1004.93 96.2871 1005.53 97.0105C1006.14 97.7216 1006.51 98.5553 1006.63 99.5117H1003.41C1003.29 99.058 1003.05 98.6657 1002.7 98.3346C1002.34 97.9913 1001.9 97.7277 1001.37 97.5438C1000.85 97.3599 1000.26 97.268 999.607 97.268C998.725 97.268 997.952 97.4335 997.29 97.7645C996.64 98.0833 996.137 98.5676 995.782 99.2174C995.439 99.855 995.267 100.646 995.267 101.59C995.267 102.301 995.365 102.926 995.561 103.466C995.77 104.005 996.064 104.459 996.444 104.827C996.824 105.182 997.278 105.458 997.805 105.654C998.344 105.838 998.945 105.93 999.607 105.93C1000.26 105.93 1000.85 105.838 1001.39 105.654C1001.93 105.458 1002.38 105.188 1002.73 104.845C1003.09 104.502 1003.32 104.103 1003.43 103.65H1006.63C1006.52 104.631 1006.14 105.483 1005.49 106.206C1004.85 106.917 1004.03 107.475 1003.01 107.88C1002 108.272 1000.86 108.468 999.589 108.468ZM1013.54 108.487C1012.65 108.487 1011.84 108.376 1011.11 108.156C1010.39 107.923 1009.77 107.585 1009.24 107.144C1008.71 106.703 1008.31 106.169 1008.02 105.544C1007.74 104.906 1007.6 104.183 1007.6 103.374C1007.6 102.307 1007.85 101.394 1008.34 100.634C1008.84 99.8734 1009.53 99.291 1010.42 98.8864C1011.31 98.4695 1012.35 98.2611 1013.54 98.2611C1014.42 98.2611 1015.23 98.3776 1015.95 98.6105C1016.69 98.8435 1017.31 99.1806 1017.83 99.622C1018.35 100.051 1018.76 100.585 1019.04 101.222C1019.32 101.86 1019.46 102.577 1019.46 103.374C1019.46 104.428 1019.22 105.342 1018.73 106.114C1018.24 106.887 1017.55 107.475 1016.67 107.88C1015.79 108.284 1014.74 108.487 1013.54 108.487ZM1013.54 106.114C1014.14 106.114 1014.65 106.004 1015.07 105.783C1015.5 105.55 1015.82 105.231 1016.04 104.827C1016.26 104.41 1016.37 103.926 1016.37 103.374C1016.37 102.957 1016.31 102.583 1016.19 102.252C1016.07 101.909 1015.88 101.621 1015.64 101.388C1015.39 101.142 1015.09 100.958 1014.74 100.836C1014.39 100.701 1014 100.634 1013.54 100.634C1012.94 100.634 1012.43 100.744 1012 100.965C1011.58 101.185 1011.26 101.504 1011.04 101.921C1010.82 102.326 1010.71 102.81 1010.71 103.374C1010.71 103.791 1010.77 104.171 1010.89 104.514C1011.03 104.845 1011.21 105.133 1011.44 105.379C1011.69 105.611 1011.98 105.795 1012.33 105.93C1012.68 106.053 1013.09 106.114 1013.54 106.114ZM1020.9 108.303V98.445H1023.88L1023.99 100.155H1024.16C1024.48 99.5546 1024.97 99.0887 1025.65 98.7576C1026.32 98.4266 1027.03 98.2611 1027.78 98.2611C1028.42 98.2611 1029 98.3408 1029.53 98.5002C1030.05 98.6596 1030.5 98.917 1030.87 99.2726C1031.25 99.6282 1031.54 100.106 1031.75 100.707C1031.96 101.296 1032.07 102.025 1032.07 102.896V108.303H1028.98V103.429C1028.98 102.828 1028.9 102.319 1028.75 101.903C1028.61 101.486 1028.37 101.167 1028.04 100.946C1027.71 100.726 1027.27 100.615 1026.71 100.615C1026.16 100.615 1025.68 100.738 1025.28 100.983C1024.87 101.216 1024.56 101.541 1024.32 101.958C1024.1 102.375 1023.99 102.853 1023.99 103.392V108.303H1020.9ZM1038.34 108.487C1036.65 108.487 1035.36 108.186 1034.46 107.585C1033.57 106.985 1033.09 106.182 1033.03 105.176H1036.05C1036.09 105.642 1036.31 105.998 1036.71 106.243C1037.11 106.488 1037.69 106.611 1038.44 106.611C1039.1 106.611 1039.61 106.525 1039.98 106.353C1040.35 106.182 1040.53 105.906 1040.53 105.526C1040.53 105.244 1040.46 105.035 1040.31 104.9C1040.18 104.753 1039.94 104.643 1039.59 104.569C1039.25 104.496 1038.77 104.434 1038.16 104.385C1037.3 104.3 1036.57 104.189 1035.95 104.054C1035.34 103.919 1034.84 103.742 1034.45 103.521C1034.07 103.3 1033.79 103.024 1033.62 102.693C1033.45 102.35 1033.36 101.933 1033.36 101.443C1033.36 100.793 1033.56 100.235 1033.95 99.7692C1034.34 99.291 1034.91 98.9232 1035.66 98.6657C1036.42 98.396 1037.33 98.2611 1038.38 98.2611C1039.34 98.2611 1040.16 98.3837 1040.86 98.6289C1041.57 98.8741 1042.14 99.2297 1042.56 99.6956C1042.97 100.162 1043.21 100.738 1043.27 101.424H1040.35C1040.31 101.13 1040.21 100.891 1040.04 100.707C1039.86 100.511 1039.63 100.364 1039.34 100.266C1039.06 100.168 1038.73 100.119 1038.36 100.119C1037.77 100.119 1037.29 100.204 1036.91 100.376C1036.54 100.548 1036.36 100.817 1036.36 101.185C1036.36 101.431 1036.44 101.621 1036.6 101.755C1036.77 101.89 1037.03 101.995 1037.39 102.068C1037.76 102.129 1038.23 102.191 1038.82 102.252C1039.69 102.326 1040.43 102.43 1041.03 102.565C1041.64 102.7 1042.13 102.883 1042.5 103.116C1042.88 103.337 1043.16 103.631 1043.33 103.999C1043.5 104.355 1043.59 104.802 1043.59 105.342C1043.59 106.286 1043.16 107.046 1042.3 107.622C1041.44 108.199 1040.12 108.487 1038.34 108.487ZM1049.05 108.468C1048.2 108.468 1047.45 108.327 1046.81 108.045C1046.17 107.751 1045.67 107.267 1045.3 106.592C1044.95 105.918 1044.77 105.011 1044.77 103.87V98.445H1047.88V103.319C1047.88 103.907 1047.94 104.416 1048.08 104.845C1048.23 105.262 1048.46 105.581 1048.8 105.802C1049.13 106.022 1049.57 106.133 1050.12 106.133C1050.68 106.133 1051.17 106.016 1051.57 105.783C1051.98 105.55 1052.29 105.225 1052.51 104.808C1052.73 104.379 1052.84 103.889 1052.84 103.337V98.445H1055.95V108.303H1052.97L1052.84 106.574H1052.69C1052.39 107.162 1051.9 107.628 1051.24 107.972C1050.58 108.303 1049.85 108.468 1049.05 108.468ZM1057.76 108.303V98.445H1060.72L1060.85 100.119H1061.01C1061.33 99.5178 1061.79 99.058 1062.39 98.7393C1062.99 98.4205 1063.68 98.2611 1064.47 98.2611C1065.31 98.2611 1066.04 98.445 1066.66 98.8128C1067.27 99.1806 1067.72 99.7201 1068 100.431H1068.17C1068.55 99.6711 1069.07 99.1193 1069.73 98.776C1070.39 98.4327 1071.15 98.2611 1071.99 98.2611C1072.84 98.2611 1073.57 98.4266 1074.18 98.7576C1074.79 99.0887 1075.26 99.5914 1075.58 100.266C1075.9 100.928 1076.06 101.786 1076.06 102.841V108.303H1072.97V103.245C1072.97 102.706 1072.9 102.24 1072.78 101.847C1072.66 101.455 1072.44 101.155 1072.14 100.946C1071.84 100.726 1071.43 100.615 1070.89 100.615C1070.38 100.615 1069.95 100.726 1069.58 100.946C1069.21 101.155 1068.93 101.455 1068.74 101.847C1068.54 102.227 1068.44 102.675 1068.44 103.19V108.303H1065.35V103.282C1065.35 102.73 1065.29 102.258 1065.17 101.866C1065.05 101.461 1064.83 101.155 1064.52 100.946C1064.22 100.726 1063.81 100.615 1063.29 100.615C1062.76 100.615 1062.32 100.726 1061.95 100.946C1061.59 101.167 1061.32 101.473 1061.12 101.866C1060.94 102.246 1060.85 102.687 1060.85 103.19V108.303H1057.76ZM1083.24 108.468C1082.04 108.468 1081 108.266 1080.12 107.861C1079.24 107.457 1078.55 106.88 1078.06 106.133C1077.57 105.385 1077.32 104.483 1077.32 103.429C1077.32 102.338 1077.57 101.412 1078.06 100.652C1078.56 99.8795 1079.25 99.291 1080.12 98.8864C1081 98.4695 1082.03 98.2611 1083.21 98.2611C1084.46 98.2611 1085.52 98.494 1086.39 98.96C1087.27 99.4136 1087.93 100.07 1088.36 100.928C1088.8 101.786 1088.98 102.822 1088.89 104.036H1080.43C1080.44 104.514 1080.57 104.931 1080.8 105.287C1081.04 105.642 1081.38 105.918 1081.79 106.114C1082.22 106.298 1082.73 106.39 1083.32 106.39C1083.99 106.39 1084.56 106.28 1085.03 106.059C1085.51 105.826 1085.81 105.526 1085.95 105.158H1088.87C1088.79 105.808 1088.49 106.384 1087.97 106.887C1087.47 107.389 1086.81 107.782 1085.99 108.064C1085.18 108.333 1084.26 108.468 1083.24 108.468ZM1080.36 102.509L1080.25 102.344H1085.99L1085.84 102.491C1085.83 102.062 1085.72 101.688 1085.51 101.369C1085.3 101.05 1085 100.805 1084.61 100.634C1084.23 100.462 1083.75 100.376 1083.19 100.376C1082.65 100.376 1082.18 100.462 1081.77 100.634C1081.37 100.793 1081.04 101.032 1080.8 101.351C1080.57 101.67 1080.42 102.056 1080.36 102.509ZM1090.32 108.303V98.445H1093.11L1093.22 100.008H1093.35C1093.56 99.481 1093.9 99.0642 1094.36 98.7576C1094.83 98.4511 1095.39 98.2979 1096.04 98.2979C1096.2 98.2979 1096.34 98.304 1096.48 98.3163C1096.61 98.3163 1096.74 98.3285 1096.85 98.353V101.13C1096.71 101.106 1096.57 101.087 1096.41 101.075C1096.26 101.063 1096.11 101.057 1095.96 101.057C1095.44 101.057 1094.98 101.142 1094.6 101.314C1094.24 101.486 1093.95 101.762 1093.74 102.142C1093.53 102.522 1093.42 103.012 1093.41 103.613V108.303H1090.32Z" fill="#232323"/>
<defs>
<filter id="filter0_d_1_1004" x="23.9821" y="23.9821" width="156.7" height="156.699" filterUnits="userSpaceOnUse" color-interpolation-filters="sRGB">
<feFlood flood-opacity="0" result="BackgroundImageFix"/>
<feColorMatrix in="SourceAlpha" type="matrix" values="0 0 0 0 0 0 0 0 0 0 0 0 0 0 0 0 0 0 127 0" result="hardAlpha"/>
<feOffset/>
<feGaussianBlur stdDeviation="2.00896"/>
<feComposite in2="hardAlpha" operator="out"/>
<feColorMatrix type="matrix" values="0 0 0 0 0 0 0 0 0 0 0 0 0 0 0 0 0 0 0.25 0"/>
<feBlend mode="normal" in2="BackgroundImageFix" result="effect1_dropShadow_1_1004"/>
<feBlend mode="normal" in="SourceGraphic" in2="effect1_dropShadow_1_1004" result="shape"/>
</filter>
<filter id="filter1_d_1_1004" x="363.292" y="49.2864" width="105.772" height="105.772" filterUnits="userSpaceOnUse" color-interpolation-filters="sRGB">
<feFlood flood-opacity="0" result="BackgroundImageFix"/>
<feColorMatrix in="SourceAlpha" type="matrix" values="0 0 0 0 0 0 0 0 0 0 0 0 0 0 0 0 0 0 127 0" result="hardAlpha"/>
<feOffset/>
<feGaussianBlur stdDeviation="1.35605"/>
<feComposite in2="hardAlpha" operator="out"/>
<feColorMatrix type="matrix" values="0 0 0 0 0 0 0 0 0 0 0 0 0 0 0 0 0 0 0.25 0"/>
<feBlend mode="normal" in2="BackgroundImageFix" result="effect1_dropShadow_1_1004"/>
<feBlend mode="normal" in="SourceGraphic" in2="effect1_dropShadow_1_1004" result="shape"/>
</filter>
<filter id="filter2_d_1_1004" x="677.292" y="49.2864" width="105.772" height="105.772" filterUnits="userSpaceOnUse" color-interpolation-filters="sRGB">
<feFlood flood-opacity="0" result="BackgroundImageFix"/>
<feColorMatrix in="SourceAlpha" type="matrix" values="0 0 0 0 0 0 0 0 0 0 0 0 0 0 0 0 0 0 127 0" result="hardAlpha"/>
<feOffset/>
<feGaussianBlur stdDeviation="1.35605"/>
<feComposite in2="hardAlpha" operator="out"/>
<feColorMatrix type="matrix" values="0 0 0 0 0 0 0 0 0 0 0 0 0 0 0 0 0 0 0.25 0"/>
<feBlend mode="normal" in2="BackgroundImageFix" result="effect1_dropShadow_1_1004"/>
<feBlend mode="normal" in="SourceGraphic" in2="effect1_dropShadow_1_1004" result="shape"/>
</filter>
<filter id="filter3_d_1_1004" x="965.982" y="23.9821" width="156.698" height="156.699" filterUnits="userSpaceOnUse" color-interpolation-filters="sRGB">
<feFlood flood-opacity="0" result="BackgroundImageFix"/>
<feColorMatrix in="SourceAlpha" type="matrix" values="0 0 0 0 0 0 0 0 0 0 0 0 0 0 0 0 0 0 127 0" result="hardAlpha"/>
<feOffset/>
<feGaussianBlur stdDeviation="2.00896"/>
<feComposite in2="hardAlpha" operator="out"/>
<feColorMatrix type="matrix" values="0 0 0 0 0 0 0 0 0 0 0 0 0 0 0 0 0 0 0.25 0"/>
<feBlend mode="normal" in2="BackgroundImageFix" result="effect1_dropShadow_1_1004"/>
<feBlend mode="normal" in="SourceGraphic" in2="effect1_dropShadow_1_1004" result="shape"/>
</filter>
</defs>
</svg>
