<svg width="24" height="23" viewBox="0 0 24 23" fill="none" xmlns="http://www.w3.org/2000/svg">
<path d="M16.7193 14.5211L16.1134 15.1243C16.1134 15.1243 14.6714 16.557 10.7369 12.6451C6.80236 8.73318 8.24436 7.3005 8.24436 7.3005L8.62516 6.9197C9.56652 5.98499 9.65573 4.48308 8.8342 3.38594L7.15653 1.14505C6.13928 -0.213065 4.17534 -0.392815 3.01029 0.765576L0.919864 2.84269C0.343331 3.41789 -0.0427992 4.16086 0.00380272 4.98638C0.123636 7.09945 1.07964 11.6438 6.4109 16.9458C12.0657 22.5673 17.3717 22.791 19.5407 22.5886C20.2277 22.5247 20.8242 22.1758 21.3049 21.6965L23.1956 19.8165C24.4738 18.5475 24.1143 16.3706 22.4793 15.4825L19.9361 14.0991C18.8629 13.5172 17.5581 13.6876 16.7193 14.5211Z" fill="#8FD5CC"/>
</svg>
