<svg width="13" height="12" viewBox="0 0 13 12" fill="none" xmlns="http://www.w3.org/2000/svg">
<path d="M8.57698 7.73848L8.26619 8.04791C8.26619 8.04791 7.52645 8.78288 5.50803 6.77605C3.48961 4.76923 4.22936 4.03426 4.22936 4.03426L4.42471 3.8389C4.90763 3.3594 4.95339 2.58891 4.53195 2.02607L3.6713 0.876479C3.14945 0.179759 2.14195 0.0875464 1.54428 0.681807L0.471891 1.74738C0.176129 2.04246 -0.021956 2.42361 0.00195079 2.8471C0.0634255 3.93112 0.553857 6.26239 3.2888 8.98233C6.18972 11.8662 8.91168 11.981 10.0244 11.8771C10.3768 11.8443 10.6828 11.6654 10.9294 11.4195L11.8993 10.455C12.5551 9.80405 12.3707 8.68725 11.5319 8.23165L10.2272 7.52195C9.6767 7.22346 9.00731 7.31089 8.57698 7.73848Z" fill="#232323"/>
</svg>
