<svg width="59" height="69" viewBox="0 0 59 69" fill="none" xmlns="http://www.w3.org/2000/svg">
<path opacity="0.1" d="M18.8499 69C18.8499 62.6683 19.3881 56.8431 20.4645 51.5245C21.6042 46.1425 23.1555 41.2038 25.1183 36.7083C27.1444 32.1495 29.4872 27.9705 32.1465 24.1715C34.8691 20.3092 37.7817 16.7634 40.8842 13.5342H12.4865V25.2162H0.424634V0.522579H58.5497V11.5398C55.4472 14.9589 52.6296 18.3147 50.0969 21.6072C47.6275 24.8997 45.4431 28.2871 43.5436 31.7696C41.6441 35.1887 40.0611 38.7978 38.7948 42.5968C37.5284 46.3958 36.5787 50.4798 35.9455 54.8486C35.3757 59.1542 35.0907 63.8713 35.0907 69H18.8499Z" fill="#FF6600"/>
</svg>
