<svg width="65" height="71" viewBox="0 0 65 71" fill="none" xmlns="http://www.w3.org/2000/svg">
<path opacity="0.1" d="M33.1857 70.8548C28.4369 70.8548 24.0681 70.2533 20.0791 69.0502C16.0901 67.8472 12.6393 65.9794 9.72673 63.4467C6.87746 60.8507 4.66137 57.4632 3.07844 53.2843C1.49551 49.042 0.704049 43.8817 0.704049 37.8033C0.704049 31.0917 1.52717 25.3931 3.17342 20.7076C4.81966 15.9589 7.13073 12.1282 10.1066 9.2156C13.1459 6.30302 16.7233 4.15024 20.8389 2.75726C25.0178 1.36429 29.5766 0.667798 34.5154 0.667798C40.5305 0.667798 45.5325 1.52258 49.5215 3.23214C53.5738 4.9417 56.708 7.25277 58.9241 10.1654C61.1402 13.0146 62.5648 16.2438 63.198 19.8529H47.4321C46.9255 18.2699 46.0391 16.9719 44.7727 15.9589C43.5064 14.9458 41.9551 14.186 40.1189 13.6795C38.3461 13.1729 36.3199 12.9197 34.0405 12.9197C30.8746 12.9197 28.1837 13.4262 25.9676 14.4393C23.7515 15.389 21.9786 16.7503 20.6489 18.5232C19.3826 20.2961 18.4328 22.4805 17.7997 25.0765C17.1665 27.6092 16.8182 30.4585 16.7549 33.6243L17.5147 33.7193C18.5278 32.0098 20.0158 30.5218 21.9786 29.2555C23.9414 27.9258 26.2208 26.9127 28.8168 26.2162C31.4761 25.4564 34.3254 25.0765 37.3646 25.0765C43.1898 25.0765 48.0969 25.9946 52.0859 27.8308C56.0748 29.6037 59.0824 32.1364 61.1085 35.4289C63.198 38.7214 64.2427 42.5837 64.2427 47.0159C64.2427 52.0813 62.9447 56.3868 60.3487 59.9326C57.8161 63.4783 54.207 66.201 49.5215 68.1005C44.8994 69.9367 39.4541 70.8548 33.1857 70.8548ZM33.4706 58.6029C36.7631 58.6029 39.4858 58.128 41.6385 57.1783C43.8546 56.2285 45.5009 54.9305 46.5773 53.2843C47.6537 51.5747 48.1919 49.5802 48.1919 47.3008C48.1919 44.8315 47.5903 42.7737 46.3873 41.1274C45.2476 39.4178 43.5697 38.1515 41.3536 37.3284C39.2008 36.5053 36.6365 36.0937 33.6606 36.0937C30.4314 36.0937 27.7088 36.6002 25.4927 37.6133C23.3399 38.6264 21.662 39.9877 20.459 41.6973C19.3193 43.4068 18.7494 45.3697 18.7494 47.5858C18.7494 50.0551 19.3509 52.1129 20.554 53.7592C21.8203 55.4054 23.5615 56.6401 25.7776 57.4632C27.9937 58.223 30.5581 58.6029 33.4706 58.6029Z" fill="#FF6600"/>
</svg>
