<svg width="128" height="123" viewBox="0 0 128 123" fill="none" xmlns="http://www.w3.org/2000/svg">
<g filter="url(#filter0_d_1_12781)">
<rect x="124" y="119" width="120" height="115" rx="20" transform="rotate(-180 124 119)" fill="#0D1117"/>
</g>
<path d="M60.5722 54.4276C60.5665 56.9129 58.9148 58.5632 56.4309 58.5689C51.9937 58.5774 47.558 58.5788 43.1208 58.5675C40.671 58.5603 39.0208 56.9044 39.0065 54.4532C38.9937 52.2182 39.0037 49.9819 39.0037 47.7469C39.0037 45.5646 38.998 43.3823 39.0051 41.2C39.0136 38.6492 40.6511 37.0089 43.2019 37.0046C47.6021 36.9989 52.0037 36.9975 56.4039 37.006C58.922 37.0103 60.5679 38.6535 60.5722 41.1729C60.5822 45.5916 60.5836 50.0089 60.5722 54.4276Z" fill="#FFF0ED"/>
<path d="M87.8441 54.3322C87.8413 56.9456 86.2095 58.5674 83.5833 58.5702C79.2358 58.5745 74.8882 58.5731 70.5406 58.5702C67.913 58.5674 66.2784 56.9456 66.2756 54.335C66.2713 49.9348 66.2685 45.5346 66.277 41.1344C66.2813 39.0588 67.4991 37.4968 69.4253 37.0871C69.7852 37.0102 70.1665 37.0074 70.5364 37.0074C72.7201 37.0003 74.9024 37.0031 77.0847 37.0031C79.25 37.0031 81.4152 37.0003 83.5805 37.0045C86.2095 37.0088 87.8413 38.6235 87.8441 41.2383C87.8498 45.6029 87.8498 49.9676 87.8441 54.3322Z" fill="#FFF0ED"/>
<path d="M60.5762 75.08C60.5762 77.2452 60.5804 79.409 60.5762 81.5743C60.5705 84.2004 58.9501 85.8322 56.3381 85.835C51.9721 85.8407 47.606 85.8407 43.2414 85.835C40.6508 85.8322 39.0105 84.2033 39.0062 81.6255C39.0005 77.2423 39.0005 72.8606 39.0062 68.4775C39.0105 65.921 40.6451 64.2751 43.1902 64.2708C47.5918 64.2637 51.992 64.2637 56.3936 64.2722C58.9373 64.2765 60.5676 65.921 60.5747 68.4804C60.5819 70.6797 60.5762 72.8806 60.5762 75.08Z" fill="#FFF0ED"/>
<path d="M87.7961 77.8784C85.1784 80.5316 82.5295 83.1564 79.8905 85.7897C79.1138 86.565 78.162 86.9434 77.0623 86.9761C75.9925 86.9491 75.045 86.592 74.2811 85.8323C71.6136 83.1791 68.9391 80.5302 66.3015 77.8471C64.7196 76.2395 64.7281 73.8509 66.3086 72.249C68.9377 69.5816 71.5866 66.9327 74.2555 64.3036C75.8559 62.726 78.2573 62.7188 79.8578 64.2937C82.5266 66.9199 85.1742 69.5702 87.8032 72.2377C89.4036 73.8609 89.398 76.2538 87.7961 77.8784Z" fill="#FFF0ED"/>
<defs>
<filter id="filter0_d_1_12781" x="0" y="0" width="128" height="123" filterUnits="userSpaceOnUse" color-interpolation-filters="sRGB">
<feFlood flood-opacity="0" result="BackgroundImageFix"/>
<feColorMatrix in="SourceAlpha" type="matrix" values="0 0 0 0 0 0 0 0 0 0 0 0 0 0 0 0 0 0 127 0" result="hardAlpha"/>
<feOffset/>
<feGaussianBlur stdDeviation="2"/>
<feComposite in2="hardAlpha" operator="out"/>
<feColorMatrix type="matrix" values="0 0 0 0 0.984314 0 0 0 0 0.533333 0 0 0 0 0.0901961 0 0 0 1 0"/>
<feBlend mode="normal" in2="BackgroundImageFix" result="effect1_dropShadow_1_12781"/>
<feBlend mode="normal" in="SourceGraphic" in2="effect1_dropShadow_1_12781" result="shape"/>
</filter>
</defs>
</svg>
