<svg width="28" height="28" viewBox="0 0 28 28" fill="none" xmlns="http://www.w3.org/2000/svg">
<circle cx="14" cy="14" r="11" fill="#8FD5CC"/>
<circle cx="14" cy="14" r="13.75" stroke="#8FD5CC" stroke-width="0.5" stroke-dasharray="5 5"/>
<path d="M17.2896 10.1746C17.131 10.0862 16.9565 10.0299 16.7761 10.0091C16.5958 9.98828 16.4131 10.0033 16.2385 10.0532C16.064 10.1032 15.901 10.1871 15.7588 10.3002C15.6167 10.4134 15.4981 10.5534 15.4101 10.7125L12.8444 15.338L11.376 13.867C11.2486 13.7348 11.0961 13.6293 10.9275 13.5568C10.7588 13.4842 10.5775 13.446 10.394 13.4444C10.2105 13.4428 10.0285 13.4778 9.85868 13.5475C9.68884 13.6171 9.53454 13.7199 9.40478 13.8499C9.27502 13.9799 9.1724 14.1344 9.10291 14.3046C9.03342 14.4747 8.99846 14.657 9.00005 14.8409C9.00165 15.0247 9.03977 15.2064 9.1122 15.3753C9.18463 15.5442 9.28991 15.697 9.42191 15.8247L12.1859 18.5937C12.4471 18.856 12.7995 19 13.163 19L13.3544 18.9862C13.5662 18.9565 13.7682 18.8779 13.9446 18.7567C14.121 18.6355 14.2669 18.475 14.3708 18.2877L17.8258 12.0575C17.914 11.8986 17.9701 11.7238 17.9909 11.5432C18.0117 11.3626 17.9968 11.1796 17.947 11.0048C17.8972 10.8299 17.8135 10.6666 17.7007 10.5242C17.5879 10.3817 17.4482 10.263 17.2896 10.1746Z" fill="#0D1117"/>
</svg>
