<svg width="57" height="70" viewBox="0 0 57 70" fill="none" xmlns="http://www.w3.org/2000/svg">
<path opacity="0.1" d="M0.419122 70V67.3407C0.419122 63.605 1.11561 60.3441 2.50859 57.5582C3.96488 54.7089 5.86439 52.2079 8.20712 50.0551C10.6132 47.839 13.2408 45.8445 16.0901 44.0717C19.0027 42.2988 21.8836 40.6209 24.7329 39.0379C27.5822 37.455 30.1781 35.8721 32.5209 34.2892C34.9269 32.7062 36.8264 30.9967 38.2194 29.1605C39.6757 27.261 40.4039 25.1398 40.4039 22.7971C40.4039 20.5177 39.8657 18.6815 38.7893 17.2885C37.7129 15.8956 36.3199 14.8508 34.6103 14.1543C32.9008 13.4578 31.0962 13.1096 29.1967 13.1096C26.4741 13.1096 24.163 13.5845 22.2635 14.5342C20.364 15.484 18.9077 16.8137 17.8946 18.5232C16.8816 20.2328 16.2801 22.2273 16.0901 24.5067H0.609074C1.11561 19.1247 2.5719 14.6925 4.97795 11.2101C7.384 7.72765 10.6765 5.13165 14.8554 3.42209C19.0343 1.64921 24.0047 0.762773 29.7666 0.762773C35.4651 0.762773 40.3089 1.68087 44.2979 3.51706C48.2868 5.28994 51.3261 7.79097 53.4155 11.0201C55.505 14.2493 56.5497 18.0167 56.5497 22.3222C56.5497 25.3615 55.9799 28.1158 54.8402 30.5851C53.7638 32.9912 52.2758 35.1756 50.3763 37.1384C48.5401 39.0379 46.4823 40.7475 44.2029 42.2671C41.9235 43.7867 39.5807 45.2114 37.1747 46.541C34.7686 47.8707 32.4892 49.1687 30.3364 50.435C28.1837 51.638 26.3158 52.8411 24.7329 54.0441C23.2133 55.1838 22.1369 56.4501 21.5037 57.8431H56.8346V70H0.419122Z" fill="#FF6600"/>
</svg>
